<svg width="1171" height="581" viewBox="0 0 1171 581" fill="none" xmlns="http://www.w3.org/2000/svg">
<g clip-path="url(#clip0_63_277)">
<path d="M585.5 0C263.663 0 2.48379 259.699 0 581H1171C1168.52 259.699 907.337 0 585.5 0Z" fill="#2F2E41"/>
<path d="M555.257 66.4672C558.446 66.4672 561.031 63.8815 561.031 60.6919C561.031 57.5022 558.446 54.9165 555.257 54.9165C552.068 54.9165 549.482 57.5022 549.482 60.6919C549.482 63.8815 552.068 66.4672 555.257 66.4672Z" fill="#F2F2F2"/>
<path d="M373.939 253.589C375.215 253.589 376.249 252.554 376.249 251.278C376.249 250.003 375.215 248.968 373.939 248.968C372.664 248.968 371.629 250.003 371.629 251.278C371.629 252.554 372.664 253.589 373.939 253.589Z" fill="#F2F2F2"/>
<path d="M714.632 362.165C715.907 362.165 716.941 361.131 716.941 359.855C716.941 358.579 715.907 357.545 714.632 357.545C713.356 357.545 712.322 358.579 712.322 359.855C712.322 361.131 713.356 362.165 714.632 362.165Z" fill="#F2F2F2"/>
<path d="M112.934 333.288C114.209 333.288 115.244 332.254 115.244 330.978C115.244 329.702 114.209 328.668 112.934 328.668C111.658 328.668 110.624 329.702 110.624 330.978C110.624 332.254 111.658 333.288 112.934 333.288Z" fill="#F2F2F2"/>
<path d="M1013.75 251.278C1015.02 251.278 1016.06 250.244 1016.06 248.968C1016.06 247.692 1015.02 246.658 1013.75 246.658C1012.47 246.658 1011.44 247.692 1011.44 248.968C1011.44 250.244 1012.47 251.278 1013.75 251.278Z" fill="#F2F2F2"/>
<path d="M272.309 275.535C273.584 275.535 274.619 274.501 274.619 273.225C274.619 271.949 273.584 270.915 272.309 270.915C271.033 270.915 269.999 271.949 269.999 273.225C269.999 274.501 271.033 275.535 272.309 275.535Z" fill="#F2F2F2"/>
<path d="M651.113 229.332C652.388 229.332 653.422 228.298 653.422 227.022C653.422 225.746 652.388 224.712 651.113 224.712C649.837 224.712 648.803 225.746 648.803 227.022C648.803 228.298 649.837 229.332 651.113 229.332Z" fill="#F2F2F2"/>
<path d="M727.335 63.0021C728.611 63.0021 729.645 61.9678 729.645 60.692C729.645 59.4161 728.611 58.3818 727.335 58.3818C726.06 58.3818 725.026 59.4161 725.026 60.692C725.026 61.9678 726.06 63.0021 727.335 63.0021Z" fill="#F2F2F2"/>
<path d="M246.901 333.288H244.591V334.443H246.901V333.288Z" fill="#F2F2F2"/>
<path d="M315.04 156.562H312.73V157.718H315.04V156.562Z" fill="#F2F2F2"/>
<path d="M481.344 288.241H479.034V289.396H481.344V288.241Z" fill="#F2F2F2"/>
<path d="M922.512 339.063H920.202V340.219H922.512V339.063Z" fill="#F2F2F2"/>
<path d="M785.08 162.338H782.77V163.493H785.08V162.338Z" fill="#F2F2F2"/>
<path d="M264.018 420.076H259.953V580.634H264.018V420.076Z" fill="#3F3D56"/>
<path d="M301.525 392.024C301.784 448.167 262.29 493.864 262.29 493.864C262.29 493.864 222.377 448.533 222.118 392.39C221.859 336.247 261.353 290.551 261.353 290.551C261.353 290.551 301.266 335.881 301.525 392.024Z" fill="#3F3D56"/>
<path d="M213.853 372.478H208.584V580.634H213.853V372.478Z" fill="#3F3D56"/>
<path d="M262.48 350.492C262.815 423.279 211.614 482.522 211.614 482.522C211.614 482.522 159.868 423.754 159.533 350.967C159.197 278.179 210.399 218.937 210.399 218.937C210.399 218.937 262.145 277.705 262.48 350.492Z" fill="#3F3D56"/>
<path d="M826.449 420.076H822.385V580.634H826.449V420.076Z" fill="black"/>
<path d="M863.956 440.537C864.215 496.681 824.721 542.377 824.721 542.377C824.721 542.377 784.808 497.047 784.55 440.903C784.291 384.76 823.785 339.064 823.785 339.064C823.785 339.064 863.698 384.394 863.956 440.537Z" fill="#3F3D56"/>
<path d="M167.007 420.076H162.943V580.634H167.007V420.076Z" fill="#3F3D56"/>
<path d="M204.514 392.024C204.773 448.167 165.279 493.864 165.279 493.864C165.279 493.864 125.366 448.533 125.107 392.39C124.849 336.247 164.342 290.551 164.342 290.551C164.342 290.551 204.256 335.881 204.514 392.024Z" fill="#3F3D56"/>
<path d="M525.023 420.076H520.958V580.634H525.023V420.076Z" fill="#3F3D56"/>
<path d="M562.53 392.024C562.789 448.167 523.295 493.864 523.295 493.864C523.295 493.864 483.382 448.533 483.123 392.39C482.865 336.247 522.358 290.551 522.358 290.551C522.358 290.551 562.271 335.881 562.53 392.024Z" fill="#3F3D56"/>
<path d="M474.859 372.478H469.59V580.634H474.859V372.478Z" fill="#3F3D56"/>
<path d="M523.485 350.492C523.821 423.279 472.619 482.522 472.619 482.522C472.619 482.522 420.873 423.754 420.538 350.967C420.203 278.179 471.404 218.937 471.404 218.937C471.404 218.937 523.15 277.705 523.485 350.492Z" fill="#3F3D56"/>
<path d="M428.012 420.076H423.948V580.634H428.012V420.076Z" fill="#3F3D56"/>
<path d="M465.519 392.024C465.778 448.167 426.284 493.864 426.284 493.864C426.284 493.864 386.371 448.533 386.113 392.39C385.854 336.247 425.348 290.551 425.348 290.551C425.348 290.551 465.261 335.881 465.519 392.024Z" fill="#3F3D56"/>
<path d="M852.727 494.847L784.815 432.395C784.632 435.201 784.536 438.038 784.55 440.903C784.808 497.047 824.721 542.377 824.721 542.377C836.342 527.997 845.779 511.981 852.727 494.847Z" fill="black"/>
<path d="M347.21 566.312C349.537 574.915 357.507 580.243 357.507 580.243C357.507 580.243 361.705 571.623 359.378 563.02C357.051 554.418 349.081 549.09 349.081 549.09C349.081 549.09 344.884 557.71 347.21 566.312Z" fill="#3F3D56"/>
<path d="M350.63 564.463C357.014 570.679 357.794 580.235 357.794 580.235C357.794 580.235 348.222 579.713 341.838 573.496C335.453 567.28 334.673 557.724 334.673 557.724C334.673 557.724 344.245 558.247 350.63 564.463Z" fill="#3F3D56"/>
<path d="M675.199 566.312C677.526 574.915 685.496 580.243 685.496 580.243C685.496 580.243 689.693 571.623 687.367 563.02C685.04 554.418 677.07 549.09 677.07 549.09C677.07 549.09 672.873 557.71 675.199 566.312Z" fill="black"/>
<path d="M678.618 564.463C685.003 570.679 685.783 580.235 685.783 580.235C685.783 580.235 676.211 579.713 669.826 573.496C663.441 567.28 662.662 557.724 662.662 557.724C662.662 557.724 672.234 558.247 678.618 564.463Z" fill="black"/>
<path d="M88.5152 566.312C90.842 574.915 98.8118 580.243 98.8118 580.243C98.8118 580.243 103.009 571.623 100.682 563.02C98.3556 554.418 90.3857 549.09 90.3857 549.09C90.3857 549.09 86.1883 557.71 88.5152 566.312Z" fill="#3F3D56"/>
<path d="M91.9341 564.463C98.3189 570.679 99.0987 580.235 99.0987 580.235C99.0987 580.235 89.5268 579.713 83.142 573.496C76.7572 567.28 75.9773 557.724 75.9773 557.724C75.9773 557.724 85.5493 558.247 91.9341 564.463Z" fill="#3F3D56"/>
<path d="M447.327 254.932L558.786 423.182C561.275 412.983 562.532 402.522 562.53 392.024C562.404 364.647 552.848 339.844 543.09 321.611L537.934 322.893L542.783 321.042C537.037 310.206 530.193 299.988 522.358 290.551C522.358 290.551 519.515 293.843 515.36 299.739C500.717 252.233 471.404 218.937 471.404 218.937C462.255 230.144 454.193 242.197 447.327 254.932Z" fill="black"/>
<path opacity="0.1" d="M1088.62 573.826C1089.5 573.826 1090.35 573.476 1090.97 572.852C1091.59 572.229 1091.94 571.384 1091.94 570.502C1091.94 569.62 1091.59 568.775 1090.97 568.152C1090.35 567.528 1089.5 567.178 1088.62 567.178H1061.3C1062.18 568.941 1062.32 570.982 1061.7 572.852C1061.08 574.722 1059.73 576.268 1057.97 577.15C1057.97 578.031 1058.32 578.876 1058.95 579.5C1059.57 580.123 1060.41 580.473 1061.3 580.473H1088.62C1089.5 580.473 1090.35 580.123 1090.97 579.5C1091.59 578.876 1091.94 578.031 1091.94 577.15C1091.94 576.268 1091.59 575.423 1090.97 574.799C1090.35 574.176 1089.5 573.826 1088.62 573.826Z" fill="#F2F2F2"/>
<path d="M1023.68 566.967C1024.14 585.093 1013.18 580.473 999.89 580.473C986.599 580.473 975.637 582.783 975.547 566.967C975.503 559.179 986.4 557.485 999.69 557.485C1012.98 557.485 1023.47 559.181 1023.68 566.967Z" fill="#3F3D56"/>
<path d="M1054.77 574.131C1054.55 574.016 1054.32 573.941 1054.08 573.909C1052.87 573.718 1051.68 573.462 1050.5 573.144C1049.32 572.822 1048.23 572.217 1047.33 571.381C1047 570.988 1046.62 570.629 1046.21 570.312C1046.01 570.156 1045.76 570.063 1045.5 570.044C1045.24 570.026 1044.99 570.083 1044.76 570.207C1044.71 570.244 1044.67 570.285 1044.63 570.33C1044.47 570.221 1044.3 570.112 1044.14 570.003C1043.26 569.424 1042.37 568.851 1041.49 568.286L1041.45 568.263C1041.47 568.123 1041.48 567.98 1041.45 567.84C1041.3 567.381 1040.98 566.992 1040.57 566.743C1041.71 566.732 1042.86 566.627 1044 566.507C1045.09 566.526 1046.14 566.116 1046.92 565.366C1047.04 565.236 1047.11 565.07 1047.12 564.895C1047.13 564.536 1046.76 564.302 1046.42 564.166C1045.98 563.985 1045.52 563.849 1045.05 563.761C1044.73 563.715 1044.4 563.647 1044.08 563.558C1043.8 563.455 1043.52 563.325 1043.26 563.172C1042.7 562.861 1042.13 562.55 1041.57 562.239C1041.33 562.123 1041.11 561.969 1040.91 561.785C1040.63 561.48 1040.5 561.05 1040.21 560.751C1039.94 560.476 1038.84 560.113 1038.69 560.677C1038.63 560.9 1038.86 561.147 1038.89 561.397C1038.51 561.159 1038.12 560.944 1037.72 560.753C1037.74 560.703 1037.77 560.658 1037.79 560.606C1035.92 559.104 1034.43 557.176 1033.45 554.984C1033.61 554.987 1033.78 554.998 1033.95 554.997C1034.24 555.023 1034.52 554.953 1034.76 554.798C1034.86 554.708 1034.94 554.596 1034.99 554.471C1035.04 554.346 1035.06 554.211 1035.05 554.077C1035.03 553.809 1034.96 553.546 1034.86 553.299C1034.62 552.56 1034.24 551.875 1033.73 551.282C1033.25 550.812 1032.69 550.417 1032.09 550.112L1031.99 550.057C1031.95 549.932 1031.91 549.807 1031.86 549.685C1031.5 548.926 1031.08 548.192 1030.63 547.487C1029.98 546.305 1029.51 545.039 1029.21 543.725C1029.11 542.925 1028.8 542.164 1028.32 541.512C1027.44 540.541 1025.93 540.565 1024.63 540.712C1023.88 540.796 1023.14 540.908 1022.4 541.023C1022.4 541.004 1022.4 540.984 1022.39 540.966C1022.3 540.792 1022.24 540.601 1022.22 540.405C1022.24 540.244 1022.27 540.086 1022.32 539.933C1022.36 539.743 1022.35 539.546 1022.3 539.36C1022.24 539.174 1022.14 539.005 1022 538.869C1021.97 538.839 1021.94 538.806 1021.91 538.774C1021.99 538.582 1022.06 538.388 1022.13 538.193C1022.19 538.12 1022.24 538.037 1022.27 537.946C1022.29 537.856 1022.3 537.76 1022.29 537.666C1022.43 537.193 1022.5 536.704 1022.5 536.212C1022.35 535.125 1022.31 534.025 1022.39 532.93C1022.35 532.659 1022.25 532.4 1022.1 532.172C1022.07 532.135 1022.03 532.119 1022 532.086C1022.22 531.788 1022.48 531.518 1022.77 531.282C1023.34 530.842 1023.95 530.456 1024.59 530.129C1024.74 530.045 1024.96 529.985 1025.1 529.888C1025.33 529.926 1025.56 529.949 1025.78 529.956C1026.63 529.961 1027.46 529.759 1028.21 529.367C1028.97 528.975 1029.61 528.406 1030.09 527.708C1030.57 527.01 1030.87 526.206 1030.96 525.365C1031.06 524.524 1030.95 523.672 1030.64 522.884C1030.88 522.827 1031.1 522.723 1031.29 522.58C1031.49 522.436 1031.65 522.256 1031.77 522.048C1032.03 521.608 1032.18 521.116 1032.22 520.61C1032.26 520.415 1032.26 520.214 1032.22 520.019C1032.19 519.824 1032.11 519.638 1032 519.472C1031.81 519.284 1031.58 519.127 1031.34 519.009C1031 518.8 1030.72 518.514 1030.52 518.175C1030.37 517.934 1030.27 517.671 1030.13 517.421C1029.92 516.959 1029.58 516.566 1029.15 516.283C1028.72 516.001 1028.23 515.841 1027.72 515.82C1027.23 515.882 1026.75 515.978 1026.28 516.107C1024.67 516.39 1022.91 515.535 1021.41 516.202C1021.04 516.381 1020.7 516.61 1020.39 516.882C1019.97 517.23 1019.56 517.597 1019.17 517.983C1018.83 518.271 1018.58 518.644 1018.43 519.063C1018.23 519.829 1018.71 520.684 1018.4 521.413C1018.3 521.622 1018.17 521.82 1018.03 522.004C1017.68 522.503 1018.05 524.452 1018.02 525.055C1017.97 525.35 1018.05 525.65 1018.23 525.89C1018.27 525.936 1018.32 525.975 1018.38 526.006C1015.86 526.904 1013.4 527.95 1011.01 529.138C1008.14 530.527 1005.76 532.754 1004.17 535.525C1003.77 536.316 1003.46 537.154 1003.09 537.965C1002.6 539.046 1002.01 540.076 1001.42 541.105C1000.7 542.36 999.973 543.617 999.138 544.8C998.663 545.427 998.222 546.08 997.819 546.756C997.808 546.854 997.805 546.954 997.81 547.053C997.826 547.146 997.817 547.242 997.783 547.331C997.747 547.382 997.7 547.425 997.646 547.456C997.591 547.487 997.53 547.506 997.468 547.511L997.448 547.562C997.26 548.17 997.103 548.787 996.98 549.412C996.733 550.404 996.341 551.362 996.189 552.373C996.102 552.499 996.053 552.649 996.049 552.803C996.046 552.957 996.087 553.109 996.169 553.24C996.251 553.37 996.369 553.474 996.509 553.538C996.65 553.602 996.805 553.624 996.958 553.6C997.823 553.985 998.657 554.435 999.487 554.89C999.475 554.951 999.456 555.009 999.448 555.072C999.421 555.715 999.576 556.353 999.896 556.912C1000.22 557.47 1000.69 557.927 1001.26 558.229C1002.4 558.815 1003.66 559.156 1004.94 559.231C1005.44 559.291 1005.94 559.319 1006.44 559.37C1007.17 559.775 1007.94 560.089 1008.75 560.305C1008.92 560.357 1009.11 560.385 1009.29 560.39C1009.53 560.374 1009.77 560.303 1009.99 560.182C1010.2 560.062 1010.38 559.895 1010.52 559.694C1014.82 559.932 1019.12 559.844 1023.41 559.431C1024.59 559.155 1025.84 559.349 1026.88 559.97C1027.81 560.725 1028 562.063 1028.69 563.041C1029.19 563.644 1029.75 564.193 1030.37 564.68C1031.59 565.974 1032.67 567.396 1033.59 568.92C1034.52 570.459 1035.87 571.703 1037.48 572.507C1037.77 572.046 1038.19 571.681 1038.68 571.458C1038.81 571.381 1038.94 571.292 1039.06 571.21C1039.23 571.486 1039.43 571.743 1039.65 571.979C1039.82 572.158 1039.98 572.347 1040.14 572.542C1040.13 572.542 1040.13 572.539 1040.12 572.54C1039.9 572.575 1039.82 572.857 1039.8 573.083C1039.7 573.949 1039.6 574.815 1039.5 575.681C1039.47 575.852 1039.48 576.029 1039.53 576.194C1039.64 576.373 1039.81 576.51 1040 576.582C1040.81 576.967 1041.68 577.197 1042.56 577.258C1043.01 577.288 1043.46 577.276 1043.91 577.315C1044.64 577.41 1045.37 577.555 1046.08 577.749C1048.02 578.191 1050.01 578.347 1052 578.212C1052.41 578.202 1052.82 578.126 1053.2 577.985C1053.66 577.766 1054.06 577.453 1054.39 577.067C1054.8 576.674 1055.11 576.183 1055.28 575.638C1055.36 575.365 1055.35 575.074 1055.26 574.804C1055.17 574.534 1055 574.299 1054.77 574.131Z" fill="#3F3D56"/>
<path d="M1022.82 516.107C1023.01 516.073 1023.2 516.021 1023.39 515.972C1022.78 515.897 1022.16 515.956 1021.58 516.147C1021.99 516.184 1022.41 516.171 1022.82 516.107Z" fill="#FF6584"/>
<path d="M1026.67 517.421C1026.8 517.671 1026.91 517.934 1027.05 518.175C1027.26 518.514 1027.54 518.8 1027.88 519.009C1028.12 519.127 1028.34 519.284 1028.54 519.472C1028.65 519.638 1028.72 519.824 1028.76 520.019C1028.8 520.214 1028.79 520.415 1028.75 520.61C1028.72 521.116 1028.56 521.608 1028.31 522.048C1028.19 522.256 1028.02 522.436 1027.83 522.58C1027.63 522.723 1027.41 522.827 1027.18 522.884C1027.53 523.724 1027.66 524.645 1027.53 525.55C1027.41 526.455 1027.05 527.31 1026.48 528.026C1025.92 528.742 1025.17 529.292 1024.32 529.62C1023.46 529.948 1022.54 530.04 1021.64 529.888C1021.49 529.985 1021.28 530.045 1021.13 530.129C1020.48 530.456 1019.88 530.842 1019.31 531.281C1019.02 531.518 1018.76 531.788 1018.53 532.086C1018.56 532.119 1018.61 532.135 1018.63 532.172C1018.79 532.4 1018.89 532.659 1018.92 532.93C1018.85 534.025 1018.89 535.125 1019.04 536.212C1019.03 536.704 1018.96 537.193 1018.83 537.666C1018.84 537.76 1018.83 537.856 1018.8 537.946C1018.77 538.037 1018.73 538.12 1018.67 538.193C1018.6 538.388 1018.52 538.582 1018.44 538.774C1018.47 538.806 1018.5 538.839 1018.53 538.869C1018.67 539.005 1018.78 539.174 1018.83 539.36C1018.89 539.546 1018.9 539.743 1018.86 539.933C1018.81 540.086 1018.77 540.244 1018.75 540.405C1018.77 540.601 1018.83 540.792 1018.92 540.966C1018.93 540.984 1018.93 541.004 1018.94 541.023C1019.68 540.908 1020.42 540.796 1021.16 540.712C1021.53 540.67 1021.9 540.645 1022.26 540.64C1022.24 540.564 1022.22 540.485 1022.22 540.405C1022.24 540.244 1022.27 540.086 1022.32 539.933C1022.36 539.743 1022.35 539.546 1022.3 539.36C1022.24 539.174 1022.14 539.005 1022 538.869C1021.97 538.839 1021.94 538.806 1021.91 538.774C1021.99 538.582 1022.06 538.388 1022.13 538.193C1022.19 538.12 1022.24 538.037 1022.27 537.946C1022.29 537.856 1022.3 537.76 1022.29 537.666C1022.43 537.193 1022.5 536.704 1022.5 536.212C1022.35 535.125 1022.31 534.025 1022.39 532.93C1022.35 532.659 1022.25 532.4 1022.1 532.172C1022.07 532.135 1022.03 532.119 1022 532.086C1022.22 531.788 1022.48 531.518 1022.77 531.281C1023.34 530.842 1023.95 530.456 1024.59 530.129C1024.74 530.045 1024.96 529.985 1025.1 529.888C1025.33 529.926 1025.56 529.948 1025.78 529.956C1026.63 529.961 1027.46 529.759 1028.21 529.367C1028.97 528.975 1029.61 528.406 1030.09 527.708C1030.57 527.01 1030.87 526.206 1030.96 525.365C1031.06 524.524 1030.95 523.672 1030.64 522.884C1030.88 522.827 1031.1 522.723 1031.29 522.58C1031.49 522.436 1031.65 522.256 1031.77 522.048C1032.03 521.608 1032.18 521.116 1032.22 520.61C1032.26 520.415 1032.26 520.214 1032.22 520.019C1032.19 519.824 1032.11 519.638 1032 519.472C1031.81 519.284 1031.58 519.127 1031.34 519.009C1031 518.8 1030.72 518.514 1030.52 518.175C1030.37 517.934 1030.27 517.671 1030.13 517.421C1029.92 516.959 1029.58 516.565 1029.15 516.283C1028.72 516.001 1028.23 515.841 1027.72 515.82C1027.23 515.882 1026.75 515.978 1026.28 516.107C1026.02 516.149 1025.75 516.167 1025.48 516.16C1025.99 516.464 1026.4 516.9 1026.67 517.421Z" fill="#FF6584"/>
<path d="M1054.77 574.131C1054.55 574.017 1054.32 573.941 1054.08 573.909C1052.87 573.718 1051.68 573.462 1050.5 573.144C1049.32 572.823 1048.23 572.217 1047.33 571.381C1047 570.988 1046.62 570.629 1046.21 570.312C1046.01 570.156 1045.76 570.063 1045.5 570.045C1045.24 570.026 1044.99 570.083 1044.76 570.207C1044.71 570.244 1044.67 570.285 1044.63 570.33C1044.47 570.221 1044.3 570.112 1044.14 570.003C1043.26 569.424 1042.37 568.852 1041.48 568.286L1041.45 568.263C1041.47 568.123 1041.48 567.98 1041.45 567.84C1041.3 567.381 1040.98 566.992 1040.57 566.743C1041.71 566.732 1042.86 566.627 1044 566.507C1045.09 566.526 1046.14 566.116 1046.92 565.367C1047.04 565.236 1047.11 565.07 1047.12 564.895C1047.13 564.536 1046.76 564.302 1046.42 564.166C1045.98 563.985 1045.52 563.849 1045.05 563.761C1044.72 563.715 1044.4 563.647 1044.08 563.558C1043.8 563.455 1043.52 563.326 1043.26 563.172C1042.7 562.861 1042.13 562.55 1041.57 562.239C1041.33 562.123 1041.11 561.969 1040.91 561.785C1040.63 561.48 1040.5 561.05 1040.21 560.751C1039.94 560.476 1038.84 560.113 1038.69 560.678C1038.63 560.901 1038.86 561.147 1038.89 561.397C1038.51 561.159 1038.12 560.944 1037.72 560.753C1037.74 560.703 1037.77 560.658 1037.79 560.606C1035.92 559.104 1034.43 557.177 1033.45 554.984C1033.61 554.988 1033.78 554.998 1033.95 554.997C1034.24 555.023 1034.52 554.953 1034.76 554.798C1034.86 554.708 1034.94 554.596 1034.99 554.471C1035.04 554.346 1035.06 554.211 1035.05 554.077C1035.03 553.809 1034.96 553.546 1034.86 553.299C1034.62 552.56 1034.24 551.875 1033.73 551.282C1033.25 550.812 1032.69 550.417 1032.09 550.112L1031.99 550.057C1031.95 549.933 1031.91 549.807 1031.86 549.685C1031.5 548.927 1031.08 548.192 1030.63 547.487C1029.98 546.305 1029.51 545.039 1029.21 543.725C1029.11 542.925 1028.8 542.164 1028.32 541.512C1027.44 540.541 1025.93 540.565 1024.63 540.712C1024.33 540.745 1024.05 540.794 1023.75 540.834C1024.18 540.958 1024.56 541.192 1024.86 541.512C1025.33 542.164 1025.64 542.925 1025.75 543.725C1026.04 545.039 1026.52 546.305 1027.16 547.487C1027.62 548.192 1028.03 548.927 1028.4 549.685C1028.45 549.807 1028.48 549.933 1028.52 550.057L1028.62 550.112C1029.23 550.417 1029.78 550.812 1030.27 551.282C1030.77 551.875 1031.15 552.56 1031.39 553.299C1031.5 553.546 1031.57 553.809 1031.59 554.077C1031.6 554.211 1031.58 554.346 1031.53 554.471C1031.48 554.596 1031.4 554.708 1031.3 554.798C1031.06 554.953 1030.77 555.023 1030.49 554.997C1030.32 554.998 1030.15 554.988 1029.98 554.984C1030.96 557.177 1032.45 559.104 1034.32 560.606C1034.31 560.658 1034.28 560.703 1034.25 560.753C1034.66 560.944 1035.05 561.159 1035.43 561.397C1035.4 561.147 1035.16 560.901 1035.22 560.678C1035.38 560.113 1036.47 560.476 1036.74 560.751C1037.04 561.05 1037.16 561.48 1037.45 561.785C1037.64 561.969 1037.86 562.123 1038.1 562.239C1038.67 562.55 1039.23 562.861 1039.8 563.172C1040.06 563.326 1040.33 563.455 1040.62 563.558C1040.94 563.647 1041.26 563.715 1041.59 563.761C1042.06 563.849 1042.52 563.985 1042.96 564.166C1043.29 564.302 1043.66 564.536 1043.66 564.895C1043.65 565.07 1043.57 565.236 1043.46 565.367C1042.67 566.116 1041.62 566.526 1040.54 566.507C1039.4 566.627 1038.25 566.732 1037.1 566.743C1037.52 566.992 1037.83 567.381 1037.99 567.84C1038.01 567.98 1038.01 568.123 1037.98 568.263L1038.02 568.286C1038.91 568.852 1039.79 569.424 1040.67 570.003C1040.84 570.112 1041 570.221 1041.17 570.33C1041.21 570.285 1041.25 570.244 1041.3 570.207C1041.52 570.083 1041.78 570.026 1042.04 570.045C1042.3 570.063 1042.54 570.156 1042.75 570.312C1043.16 570.629 1043.53 570.988 1043.87 571.381C1044.76 572.217 1045.85 572.823 1047.03 573.144C1048.21 573.462 1049.41 573.718 1050.61 573.909C1050.85 573.941 1051.09 574.017 1051.3 574.131C1051.53 574.299 1051.7 574.534 1051.8 574.804C1051.89 575.074 1051.89 575.365 1051.81 575.638C1051.64 576.183 1051.34 576.674 1050.92 577.067C1050.6 577.454 1050.19 577.766 1049.74 577.985C1049.45 578.092 1049.16 578.157 1048.86 578.178C1049.9 578.271 1050.95 578.282 1052 578.213C1052.41 578.203 1052.82 578.126 1053.2 577.985C1053.66 577.766 1054.06 577.454 1054.39 577.067C1054.8 576.674 1055.11 576.183 1055.28 575.638C1055.36 575.365 1055.35 575.074 1055.26 574.804C1055.17 574.534 1055 574.299 1054.77 574.131Z" fill="#FF6584"/>
<path d="M1035.55 571.239C1035.61 571.291 1035.67 571.345 1035.73 571.395C1035.68 571.333 1035.64 571.274 1035.6 571.21L1035.55 571.239Z" fill="#FF6584"/>
<path d="M1087.14 561.639C1087.14 573.876 1081.69 570.502 1074.96 570.502C1068.23 570.502 1062.77 573.876 1062.77 561.639C1062.77 549.401 1074.96 526.185 1074.96 526.185C1074.96 526.185 1087.14 549.401 1087.14 561.639Z" fill="#FF6584"/>
<path opacity="0.1" d="M1080.5 566.321C1080.5 571.883 1078.02 570.35 1074.96 570.35C1071.9 570.35 1069.42 571.883 1069.42 566.321C1069.42 560.758 1074.96 550.206 1074.96 550.206C1074.96 550.206 1080.5 560.758 1080.5 566.321Z" fill="black"/>
<path d="M1090.23 528.939C1090.23 528.939 1092.76 526.306 1092.71 523.724Z" fill="#FF6584"/>
<path d="M1064.29 507.002C1064.29 507.002 1063.23 503.505 1060.95 502.286Z" fill="#FF6584"/>
<path d="M1038.88 459.644C1038.88 459.644 1037.82 456.147 1035.55 454.928Z" fill="#FF6584"/>
<path d="M1068.91 523.173C1068.91 523.173 1067.85 519.676 1065.57 518.457Z" fill="#FF6584"/>
<path d="M1065.44 466.574C1065.44 466.574 1064.39 463.078 1062.11 461.858Z" fill="#FF6584"/>
<path d="M1058.51 487.366C1058.51 487.366 1057.46 483.869 1055.18 482.649Z" fill="#FF6584"/>
<path d="M1087.92 564.746C1087.92 564.746 1090.45 562.113 1090.4 559.531Z" fill="#FF6584"/>
<path d="M1092.54 545.11C1092.54 545.11 1095.07 542.477 1095.02 539.895Z" fill="#FF6584"/>
<path d="M1060.92 541.808L1033.2 551.048L1033.56 552.145L1061.28 542.904L1060.92 541.808Z" fill="#FF6584"/>
<path d="M1058.9 542.91C1059.94 546.976 1058.2 546.005 1056.6 546.335C1055.01 546.664 1055.32 548.131 1053.13 544.104C1051.62 541.318 1053.84 541.009 1055.43 540.679C1057.03 540.349 1058.19 540.133 1058.9 542.91Z" fill="#FF6584"/>
<path opacity="0.1" d="M663.748 321.06L663.746 321.059L638.548 297.886L638.322 297.942L628.231 288.768L627.744 288.625L628.269 288.426L520.958 189.745L417.323 94.4409L364.516 122.456L360.196 123.412L423.481 218.937L662.985 580.473H945.841L663.748 321.06Z" fill="#F2F2F2"/>
<path d="M386.643 138.082C403.864 138.082 417.825 124.119 417.825 106.895C417.825 89.6708 403.864 75.708 386.643 75.708C369.422 75.708 355.461 89.6708 355.461 106.895C355.461 124.119 369.422 138.082 386.643 138.082Z" fill="#F2F2F2"/>
</g>
<defs>
<clipPath id="clip0_63_277">
<rect width="1171" height="581" fill="white"/>
</clipPath>
</defs>
</svg>
