<svg width="1728" height="1010" viewBox="0 0 1728 1010" fill="none" xmlns="http://www.w3.org/2000/svg">
<rect width="1728" height="1009" fill="#2F2E41"/>
<path d="M451.564 375.632C453.446 375.632 454.972 374.026 454.972 372.045C454.972 370.065 453.446 368.459 451.564 368.459C449.682 368.459 448.156 370.065 448.156 372.045C448.156 374.026 449.682 375.632 451.564 375.632Z" fill="#F2F2F2"/>
<path d="M768.564 192.632C770.446 192.632 771.972 191.026 771.972 189.045C771.972 187.065 770.446 185.459 768.564 185.459C766.682 185.459 765.156 187.065 765.156 189.045C765.156 191.026 766.682 192.632 768.564 192.632Z" fill="#F2F2F2"/>
<path d="M954.311 544.196C956.193 544.196 957.719 542.591 957.719 540.61C957.719 538.629 956.193 537.023 954.311 537.023C952.428 537.023 950.902 538.629 950.902 540.61C950.902 542.591 952.428 544.196 954.311 544.196Z" fill="#F2F2F2"/>
<path d="M1271.31 361.196C1273.19 361.196 1274.72 359.591 1274.72 357.61C1274.72 355.629 1273.19 354.023 1271.31 354.023C1269.43 354.023 1267.9 355.629 1267.9 357.61C1267.9 359.591 1269.43 361.196 1271.31 361.196Z" fill="#F2F2F2"/>
<path d="M66.4085 499.366C68.2909 499.366 69.8169 497.761 69.8169 495.78C69.8169 493.799 68.2909 492.193 66.4085 492.193C64.526 492.193 63 493.799 63 495.78C63 497.761 64.526 499.366 66.4085 499.366Z" fill="#F2F2F2"/>
<path d="M28.4085 234.173C30.2909 234.173 31.8169 232.567 31.8169 230.586C31.8169 228.606 30.2909 227 28.4085 227C26.526 227 25 228.606 25 230.586C25 232.567 26.526 234.173 28.4085 234.173Z" fill="#F2F2F2"/>
<path d="M383.408 316.366C385.291 316.366 386.817 314.761 386.817 312.78C386.817 310.799 385.291 309.193 383.408 309.193C381.526 309.193 380 310.799 380 312.78C380 314.761 381.526 316.366 383.408 316.366Z" fill="#F2F2F2"/>
<path d="M345.408 51.173C347.291 51.173 348.817 49.5672 348.817 47.5865C348.817 45.6057 347.291 44 345.408 44C343.526 44 342 45.6057 342 47.5865C342 49.5672 343.526 51.173 345.408 51.173Z" fill="#F2F2F2"/>
<path d="M1395.71 372.046C1397.59 372.046 1399.11 370.44 1399.11 368.46C1399.11 366.479 1397.59 364.873 1395.71 364.873C1393.82 364.873 1392.3 366.479 1392.3 368.46C1392.3 370.44 1393.82 372.046 1395.71 372.046Z" fill="#F2F2F2"/>
<path d="M1712.71 189.046C1714.59 189.046 1716.11 187.44 1716.11 185.46C1716.11 183.479 1714.59 181.873 1712.71 181.873C1710.82 181.873 1709.3 183.479 1709.3 185.46C1709.3 187.44 1710.82 189.046 1712.71 189.046Z" fill="#F2F2F2"/>
<path d="M301.592 409.704C303.474 409.704 305.001 408.098 305.001 406.118C305.001 404.137 303.474 402.531 301.592 402.531C299.71 402.531 298.184 404.137 298.184 406.118C298.184 408.098 299.71 409.704 301.592 409.704Z" fill="#F2F2F2"/>
<path d="M263.592 144.511C265.474 144.511 267.001 142.905 267.001 140.924C267.001 138.944 265.474 137.338 263.592 137.338C261.71 137.338 260.184 138.944 260.184 140.924C260.184 142.905 261.71 144.511 263.592 144.511Z" fill="#F2F2F2"/>
<path d="M618.592 226.704C620.474 226.704 622.001 225.098 622.001 223.118C622.001 221.137 620.474 219.531 618.592 219.531C616.71 219.531 615.184 221.137 615.184 223.118C615.184 225.098 616.71 226.704 618.592 226.704Z" fill="#F2F2F2"/>
<path d="M860.578 337.974C862.461 337.974 863.987 336.368 863.987 334.387C863.987 332.407 862.461 330.801 860.578 330.801C858.696 330.801 857.17 332.407 857.17 334.387C857.17 336.368 858.696 337.974 860.578 337.974Z" fill="#F2F2F2"/>
<path d="M1177.58 154.974C1179.46 154.974 1180.99 153.368 1180.99 151.387C1180.99 149.407 1179.46 147.801 1177.58 147.801C1175.7 147.801 1174.17 149.407 1174.17 151.387C1174.17 153.368 1175.7 154.974 1177.58 154.974Z" fill="#F2F2F2"/>
<path d="M364.648 225H361.24V226.793H364.648V225Z" fill="#F2F2F2"/>
<path d="M681.648 42H678.24V43.7932H681.648V42Z" fill="#F2F2F2"/>
<path d="M1261.07 508.332H1257.66V510.125H1261.07V508.332Z" fill="#F2F2F2"/>
<path d="M1578.07 325.332H1574.66V327.125H1578.07V325.332Z" fill="#F2F2F2"/>
<path opacity="0.1" d="M888.315 527.035L888.312 527.033L844.124 483.98L843.727 484.085L826.032 467.039L825.178 466.775L826.099 466.404L637.916 283.065L456.179 106L363.574 158.049L356 159.826L466.977 337.301L886.978 1009H1383L888.315 527.035Z" fill="#F2F2F2"/>
<path d="M43.5015 987.738C46.9351 1001.09 58.6959 1009.36 58.6959 1009.36C58.6959 1009.36 64.8898 995.983 61.4562 982.627C58.0226 969.271 46.2618 961 46.2618 961C46.2618 961 40.0679 974.382 43.5015 987.738Z" fill="#3F3D56"/>
<path d="M461.501 987.738C464.935 1001.09 476.696 1009.36 476.696 1009.36C476.696 1009.36 482.89 995.983 479.456 982.627C476.023 969.271 464.262 961 464.262 961C464.262 961 458.068 974.382 461.501 987.738Z" fill="#3F3D56"/>
<path d="M658.501 987.738C661.935 1001.09 673.696 1009.36 673.696 1009.36C673.696 1009.36 679.89 995.983 676.456 982.627C673.023 969.271 661.262 961 661.262 961C661.262 961 655.068 974.382 658.501 987.738Z" fill="#3F3D56"/>
<path d="M1417.5 987.738C1420.94 1001.09 1432.7 1009.36 1432.7 1009.36C1432.7 1009.36 1438.89 995.983 1435.46 982.627C1432.02 969.271 1420.26 961 1420.26 961C1420.26 961 1414.07 974.382 1417.5 987.738Z" fill="#3F3D56"/>
<path d="M48.5468 984.867C57.9686 994.517 59.1194 1009.35 59.1194 1009.35C59.1194 1009.35 44.9944 1008.54 35.5726 998.891C26.1508 989.24 25 974.404 25 974.404C25 974.404 39.125 975.216 48.5468 984.867Z" fill="#3F3D56"/>
<path d="M466.547 984.867C475.969 994.517 477.119 1009.35 477.119 1009.35C477.119 1009.35 462.994 1008.54 453.573 998.891C444.151 989.24 443 974.404 443 974.404C443 974.404 457.125 975.216 466.547 984.867Z" fill="#3F3D56"/>
<path d="M663.547 984.867C672.969 994.517 674.119 1009.35 674.119 1009.35C674.119 1009.35 659.994 1008.54 650.573 998.891C641.151 989.24 640 974.404 640 974.404C640 974.404 654.125 975.216 663.547 984.867Z" fill="#3F3D56"/>
<path d="M1422.55 984.867C1431.97 994.517 1433.12 1009.35 1433.12 1009.35C1433.12 1009.35 1418.99 1008.54 1409.57 998.891C1400.15 989.24 1399 974.404 1399 974.404C1399 974.404 1413.12 975.216 1422.55 984.867Z" fill="#3F3D56"/>
<path d="M773.986 759.268H767.989V1008.53H773.986V759.268Z" fill="#3F3D56"/>
<path d="M829.334 715.719C829.716 802.881 771.437 873.824 771.437 873.824C771.437 873.824 712.539 803.449 712.157 716.287C711.775 629.125 770.054 558.182 770.054 558.182C770.054 558.182 828.953 628.556 829.334 715.719Z" fill="#3F3D56"/>
<path d="M699.961 685.372H692.186V1008.53H699.961V685.372Z" fill="#3F3D56"/>
<path d="M771.717 651.239C772.212 764.241 696.656 856.215 696.656 856.215C696.656 856.215 620.297 764.978 619.802 651.976C619.307 538.974 694.863 447 694.863 447C694.863 447 771.222 538.238 771.717 651.239Z" fill="#3F3D56"/>
<path d="M630.831 759.268H624.834V1008.53H630.831V759.268Z" fill="#3F3D56"/>
<path d="M686.179 715.719C686.561 802.881 628.282 873.824 628.282 873.824C628.282 873.824 569.384 803.449 569.002 716.287C568.62 629.125 626.899 558.182 626.899 558.182C626.899 558.182 685.798 628.556 686.179 715.719Z" fill="#3F3D56"/>
<path d="M1228.83 759.771H1222.83V1009.04H1228.83V759.771Z" fill="black"/>
<path d="M1284.18 791.537C1284.56 878.699 1226.28 949.642 1226.28 949.642C1226.28 949.642 1167.38 879.267 1167 792.105C1166.62 704.943 1224.9 634 1224.9 634C1224.9 634 1283.8 704.375 1284.18 791.537Z" fill="#3F3D56"/>
<path d="M1261.5 890.5L1167 798.5C1166.8 801.75 1169.1 828.981 1169.17 832.295C1170.66 897.215 1227.06 948.673 1227.06 948.673C1242.93 931.763 1252.18 910.482 1261.5 890.5Z" fill="black"/>
<path d="M343.986 756.268H337.989V1005.53H343.986V756.268Z" fill="#3F3D56"/>
<path d="M399.335 712.719C399.716 799.881 341.437 870.824 341.437 870.824C341.437 870.824 282.539 800.449 282.157 713.287C281.775 626.125 340.055 555.182 340.055 555.182C340.055 555.182 398.953 625.556 399.335 712.719Z" fill="#3F3D56"/>
<path d="M269.961 682.372H262.186V1005.53H269.961V682.372Z" fill="#3F3D56"/>
<path d="M341.717 648.239C342.212 761.241 266.656 853.215 266.656 853.215C266.656 853.215 190.297 761.978 189.802 648.976C189.307 535.974 264.864 444 264.864 444C264.864 444 341.222 535.238 341.717 648.239Z" fill="#3F3D56"/>
<path d="M200.831 756.268H194.834V1005.53H200.831V756.268Z" fill="#3F3D56"/>
<path d="M256.179 712.719C256.561 799.881 198.282 870.824 198.282 870.824C198.282 870.824 139.384 800.449 139.002 713.287C138.62 626.125 196.899 555.182 196.899 555.182C196.899 555.182 255.798 625.556 256.179 712.719Z" fill="#3F3D56"/>
<path d="M1540.02 986.942C1540.71 1015.08 1524.53 1007.91 1504.92 1007.91C1485.31 1007.91 1469.13 1011.5 1469 986.942C1468.94 974.851 1485.02 972.221 1504.63 972.221C1524.24 972.221 1539.73 974.855 1540.02 986.942Z" fill="#3F3D56"/>
<path d="M1585.9 998.062C1585.59 997.884 1585.24 997.768 1584.89 997.718C1583.11 997.42 1581.34 997.024 1579.6 996.53C1577.86 996.031 1576.25 995.091 1574.93 993.792C1574.43 993.182 1573.88 992.626 1573.28 992.133C1572.98 991.891 1572.61 991.747 1572.23 991.718C1571.85 991.689 1571.47 991.777 1571.13 991.971C1571.07 992.028 1571 992.091 1570.94 992.161C1570.7 991.991 1570.46 991.822 1570.21 991.653C1568.92 990.754 1567.61 989.866 1566.3 988.987L1566.25 988.951C1566.29 988.735 1566.29 988.513 1566.25 988.296C1566.02 987.583 1565.56 986.979 1564.95 986.592C1566.64 986.575 1568.34 986.413 1570.02 986.226C1571.62 986.255 1573.17 985.619 1574.32 984.455C1574.5 984.253 1574.6 983.996 1574.62 983.723C1574.63 983.166 1574.08 982.802 1573.59 982.591C1572.94 982.31 1572.26 982.1 1571.57 981.963C1571.08 981.892 1570.6 981.786 1570.13 981.648C1569.71 981.488 1569.31 981.287 1568.93 981.048C1568.09 980.565 1567.26 980.083 1566.43 979.6C1566.07 979.419 1565.75 979.181 1565.46 978.895C1565.04 978.422 1564.85 977.754 1564.42 977.29C1564.02 976.862 1562.41 976.299 1562.18 977.176C1562.08 977.522 1562.43 977.905 1562.47 978.292C1561.92 977.924 1561.34 977.59 1560.74 977.292C1560.78 977.215 1560.82 977.145 1560.85 977.065C1558.08 974.733 1555.89 971.74 1554.44 968.336C1554.69 968.342 1554.94 968.359 1555.18 968.357C1555.61 968.397 1556.03 968.289 1556.38 968.048C1556.53 967.907 1556.65 967.734 1556.72 967.54C1556.79 967.345 1556.82 967.136 1556.81 966.928C1556.78 966.512 1556.68 966.104 1556.52 965.721C1556.17 964.573 1555.61 963.509 1554.86 962.589C1554.14 961.859 1553.33 961.247 1552.43 960.773L1552.29 960.688C1552.23 960.494 1552.17 960.299 1552.1 960.109C1551.56 958.932 1550.95 957.793 1550.28 956.697C1549.33 954.863 1548.62 952.897 1548.19 950.857C1548.03 949.615 1547.58 948.434 1546.88 947.422C1545.58 945.914 1543.35 945.952 1541.42 946.18C1540.33 946.31 1539.23 946.484 1538.14 946.662C1538.13 946.633 1538.13 946.602 1538.12 946.573C1537.98 946.303 1537.9 946.007 1537.87 945.702C1537.9 945.453 1537.95 945.208 1538.02 944.97C1538.08 944.675 1538.07 944.369 1537.99 944.08C1537.9 943.791 1537.75 943.529 1537.55 943.318C1537.5 943.272 1537.46 943.221 1537.41 943.17C1537.53 942.872 1537.64 942.571 1537.74 942.268C1537.83 942.156 1537.9 942.026 1537.94 941.885C1537.98 941.745 1538 941.597 1537.98 941.451C1538.18 940.716 1538.29 939.957 1538.29 939.193C1538.07 937.505 1538.01 935.798 1538.12 934.098C1538.06 933.677 1537.92 933.275 1537.7 932.921C1537.66 932.864 1537.59 932.838 1537.54 932.788C1537.88 932.324 1538.26 931.905 1538.69 931.539C1539.53 930.856 1540.43 930.257 1541.37 929.749C1541.6 929.618 1541.91 929.525 1542.13 929.375C1542.46 929.434 1542.8 929.469 1543.13 929.481C1544.38 929.489 1545.61 929.175 1546.72 928.567C1547.83 927.958 1548.78 927.074 1549.48 925.991C1550.19 924.908 1550.63 923.659 1550.78 922.353C1550.92 921.047 1550.76 919.725 1550.3 918.501C1550.65 918.412 1550.98 918.252 1551.26 918.029C1551.55 917.807 1551.79 917.526 1551.97 917.204C1552.35 916.52 1552.57 915.757 1552.63 914.97C1552.69 914.668 1552.69 914.357 1552.64 914.054C1552.58 913.751 1552.47 913.462 1552.31 913.205C1552.02 912.912 1551.69 912.67 1551.33 912.486C1550.84 912.16 1550.42 911.717 1550.12 911.191C1549.9 910.817 1549.75 910.408 1549.55 910.02C1549.23 909.303 1548.73 908.692 1548.1 908.254C1547.47 907.816 1546.74 907.567 1545.99 907.535C1545.27 907.631 1544.56 907.779 1543.87 907.98C1541.48 908.42 1538.89 907.092 1536.68 908.128C1536.13 908.406 1535.62 908.762 1535.17 909.184C1534.55 909.724 1533.95 910.294 1533.37 910.893C1532.87 911.34 1532.5 911.919 1532.28 912.57C1531.98 913.758 1532.69 915.086 1532.24 916.218C1532.08 916.542 1531.9 916.849 1531.68 917.135C1531.18 917.91 1531.73 920.935 1531.67 921.871C1531.61 922.33 1531.72 922.796 1531.98 923.169C1532.05 923.239 1532.12 923.3 1532.2 923.349C1528.49 924.742 1524.86 926.366 1521.33 928.211C1517.09 930.368 1513.58 933.824 1511.24 938.126C1510.64 939.355 1510.19 940.656 1509.65 941.914C1508.92 943.592 1508.05 945.193 1507.18 946.79C1506.11 948.738 1505.04 950.689 1503.81 952.525C1503.11 953.499 1502.46 954.513 1501.87 955.563C1501.85 955.716 1501.85 955.869 1501.85 956.023C1501.88 956.168 1501.86 956.317 1501.81 956.455C1501.76 956.534 1501.69 956.601 1501.61 956.649C1501.53 956.698 1501.44 956.727 1501.35 956.735L1501.32 956.814C1501.04 957.758 1500.81 958.716 1500.63 959.686C1500.26 961.226 1499.68 962.713 1499.46 964.283C1499.33 964.479 1499.26 964.712 1499.25 964.951C1499.25 965.19 1499.31 965.426 1499.43 965.629C1499.55 965.831 1499.73 965.993 1499.93 966.092C1500.14 966.191 1500.37 966.225 1500.59 966.188C1501.87 966.785 1503.1 967.485 1504.33 968.19C1504.31 968.285 1504.28 968.376 1504.27 968.473C1504.23 969.472 1504.46 970.462 1504.93 971.329C1505.4 972.197 1506.1 972.906 1506.94 973.375C1508.63 974.284 1510.48 974.814 1512.38 974.931C1513.11 975.024 1513.85 975.067 1514.59 975.146C1515.66 975.775 1516.81 976.262 1517.99 976.598C1518.25 976.678 1518.52 976.722 1518.79 976.729C1519.15 976.704 1519.5 976.594 1519.82 976.407C1520.14 976.22 1520.41 975.961 1520.61 975.649C1526.95 976.018 1533.31 975.881 1539.62 975.241C1541.37 974.813 1543.21 975.113 1544.75 976.078C1546.12 977.25 1546.4 979.327 1547.42 980.845C1548.16 981.781 1548.99 982.634 1549.9 983.389C1551.7 985.399 1553.3 987.606 1554.66 989.972C1556.03 992.361 1558.02 994.292 1560.39 995.542C1560.82 994.825 1561.44 994.258 1562.17 993.912C1562.36 993.794 1562.54 993.655 1562.73 993.527C1562.98 993.955 1563.27 994.355 1563.6 994.721C1563.84 994.999 1564.08 995.292 1564.31 995.595C1564.31 995.596 1564.3 995.591 1564.29 995.592C1563.96 995.647 1563.85 996.084 1563.81 996.435C1563.66 997.779 1563.52 999.124 1563.37 1000.47C1563.32 1000.73 1563.34 1001.01 1563.42 1001.27C1563.58 1001.54 1563.82 1001.76 1564.11 1001.87C1565.3 1002.47 1566.58 1002.82 1567.89 1002.92C1568.55 1002.96 1569.22 1002.94 1569.88 1003.01C1570.96 1003.15 1572.03 1003.38 1573.08 1003.68C1575.94 1004.37 1578.89 1004.61 1581.82 1004.4C1582.42 1004.38 1583.02 1004.26 1583.59 1004.05C1584.26 1003.71 1584.86 1003.22 1585.34 1002.62C1585.95 1002.01 1586.4 1001.25 1586.66 1000.4C1586.77 999.978 1586.76 999.526 1586.63 999.107C1586.49 998.688 1586.24 998.324 1585.9 998.062Z" fill="#3F3D56"/>
<path d="M1585.9 998.062C1585.59 997.885 1585.24 997.768 1584.89 997.718C1583.11 997.421 1581.34 997.024 1579.6 996.53C1577.86 996.031 1576.25 995.092 1574.93 993.793C1574.43 993.182 1573.88 992.626 1573.28 992.133C1572.98 991.891 1572.61 991.747 1572.23 991.718C1571.85 991.689 1571.47 991.777 1571.13 991.971C1571.07 992.028 1571 992.091 1570.94 992.161C1570.7 991.992 1570.46 991.823 1570.21 991.653C1568.92 990.755 1567.61 989.866 1566.3 988.987L1566.25 988.952C1566.29 988.735 1566.29 988.513 1566.25 988.296C1566.02 987.583 1565.56 986.979 1564.95 986.593C1566.64 986.575 1568.34 986.413 1570.02 986.226C1571.62 986.255 1573.17 985.619 1574.32 984.455C1574.5 984.253 1574.6 983.996 1574.62 983.724C1574.63 983.167 1574.08 982.802 1573.59 982.591C1572.94 982.31 1572.26 982.1 1571.57 981.963C1571.08 981.892 1570.6 981.786 1570.13 981.648C1569.71 981.488 1569.31 981.287 1568.93 981.048C1568.09 980.565 1567.26 980.083 1566.43 979.601C1566.07 979.419 1565.75 979.181 1565.46 978.895C1565.04 978.422 1564.85 977.755 1564.42 977.29C1564.02 976.862 1562.41 976.299 1562.18 977.176C1562.08 977.522 1562.43 977.905 1562.47 978.292C1561.92 977.924 1561.34 977.59 1560.74 977.293C1560.78 977.215 1560.82 977.145 1560.85 977.065C1558.08 974.733 1555.89 971.741 1554.44 968.336C1554.69 968.342 1554.94 968.359 1555.18 968.357C1555.61 968.398 1556.03 968.289 1556.38 968.048C1556.53 967.908 1556.65 967.734 1556.72 967.54C1556.79 967.346 1556.82 967.136 1556.81 966.928C1556.78 966.512 1556.68 966.104 1556.52 965.721C1556.17 964.573 1555.61 963.509 1554.86 962.59C1554.14 961.859 1553.33 961.247 1552.43 960.773L1552.29 960.688C1552.23 960.494 1552.17 960.299 1552.1 960.109C1551.56 958.932 1550.95 957.793 1550.28 956.697C1549.33 954.863 1548.62 952.897 1548.19 950.857C1548.03 949.615 1547.58 948.434 1546.88 947.422C1545.58 945.914 1543.35 945.952 1541.42 946.18C1540.99 946.231 1540.57 946.307 1540.14 946.369C1540.76 946.561 1541.32 946.925 1541.77 947.422C1542.47 948.434 1542.92 949.615 1543.08 950.857C1543.51 952.897 1544.21 954.863 1545.16 956.697C1545.84 957.793 1546.45 958.932 1546.99 960.109C1547.06 960.299 1547.12 960.494 1547.18 960.688L1547.32 960.773C1548.21 961.247 1549.03 961.859 1549.75 962.59C1550.49 963.509 1551.06 964.573 1551.41 965.721C1551.57 966.104 1551.66 966.512 1551.7 966.928C1551.71 967.136 1551.68 967.346 1551.61 967.54C1551.53 967.734 1551.42 967.908 1551.27 968.048C1550.92 968.289 1550.49 968.398 1550.07 968.357C1549.82 968.359 1549.58 968.342 1549.33 968.336C1550.77 971.741 1552.97 974.733 1555.74 977.065C1555.71 977.145 1555.66 977.215 1555.63 977.293C1556.23 977.59 1556.8 977.924 1557.36 978.292C1557.32 977.905 1556.97 977.522 1557.06 977.176C1557.29 976.299 1558.9 976.862 1559.3 977.29C1559.74 977.755 1559.92 978.422 1560.35 978.895C1560.63 979.181 1560.96 979.419 1561.31 979.601C1562.15 980.083 1562.98 980.565 1563.81 981.048C1564.2 981.287 1564.6 981.488 1565.02 981.648C1565.49 981.786 1565.97 981.892 1566.45 981.963C1567.15 982.1 1567.82 982.31 1568.48 982.591C1568.97 982.802 1569.51 983.167 1569.51 983.724C1569.49 983.996 1569.39 984.253 1569.21 984.455C1568.05 985.619 1566.51 986.255 1564.91 986.226C1563.23 986.413 1561.53 986.575 1559.84 986.593C1560.45 986.979 1560.91 987.583 1561.14 988.296C1561.17 988.513 1561.17 988.735 1561.14 988.952L1561.19 988.987C1562.5 989.866 1563.8 990.755 1565.1 991.653C1565.35 991.822 1565.59 991.991 1565.83 992.161C1565.89 992.091 1565.95 992.028 1566.02 991.971C1566.36 991.777 1566.74 991.689 1567.12 991.718C1567.5 991.747 1567.86 991.891 1568.17 992.133C1568.77 992.626 1569.32 993.182 1569.82 993.793C1571.14 995.092 1572.74 996.031 1574.49 996.53C1576.23 997.024 1577.99 997.421 1579.77 997.718C1580.13 997.768 1580.47 997.885 1580.79 998.062C1581.13 998.324 1581.38 998.688 1581.52 999.107C1581.65 999.526 1581.66 999.978 1581.54 1000.4C1581.29 1001.25 1580.84 1002.01 1580.23 1002.62C1579.75 1003.22 1579.15 1003.71 1578.48 1004.05C1578.06 1004.21 1577.63 1004.31 1577.18 1004.35C1578.72 1004.49 1580.27 1004.51 1581.82 1004.4C1582.42 1004.38 1583.02 1004.26 1583.59 1004.05C1584.26 1003.71 1584.86 1003.22 1585.34 1002.62C1585.95 1002.01 1586.4 1001.25 1586.66 1000.4C1586.77 999.978 1586.76 999.526 1586.63 999.107C1586.49 998.688 1586.24 998.324 1585.9 998.062Z" fill="#FF6584"/>
<path d="M1633.68 978.669C1633.68 997.668 1625.63 992.429 1615.7 992.429C1605.77 992.429 1597.71 997.668 1597.71 978.669C1597.71 959.669 1615.7 923.627 1615.7 923.627C1615.7 923.627 1633.68 959.669 1633.68 978.669Z" fill="#FF6584"/>
<path opacity="0.1" d="M1623.87 985.938C1623.87 994.574 1620.21 992.193 1615.7 992.193C1611.18 992.193 1607.52 994.574 1607.52 985.938C1607.52 977.302 1615.7 960.919 1615.7 960.919C1615.7 960.919 1623.87 977.302 1623.87 985.938Z" fill="black"/>
<path d="M1638.23 927.903C1638.23 927.903 1641.97 923.816 1641.9 919.807Z" fill="#FF6584"/>
<path d="M1599.95 893.845C1599.95 893.845 1598.39 888.417 1595.03 886.523Z" fill="#FF6584"/>
<path d="M1562.46 820.322C1562.46 820.322 1560.9 814.894 1557.54 813Z" fill="#FF6584"/>
<path d="M1606.77 918.951C1606.77 918.951 1605.21 913.522 1601.85 911.629Z" fill="#FF6584"/>
<path d="M1601.66 831.081C1601.66 831.081 1600.1 825.653 1596.74 823.76Z" fill="#FF6584"/>
<path d="M1591.43 863.36C1591.43 863.36 1589.87 857.932 1586.51 856.038Z" fill="#FF6584"/>
<path d="M1634.83 983.493C1634.83 983.493 1638.56 979.406 1638.49 975.396Z" fill="#FF6584"/>
<path d="M1641.64 953.009C1641.64 953.009 1645.38 948.921 1645.3 944.912Z" fill="#FF6584"/>
<path d="M1594.98 947.881L1554.07 962.227L1554.61 963.929L1595.51 949.583L1594.98 947.881Z" fill="#FF6584"/>
<path d="M1592.01 949.592C1593.54 955.905 1590.96 954.397 1588.61 954.908C1586.26 955.42 1586.72 957.698 1583.49 951.445C1581.26 947.121 1584.53 946.64 1586.89 946.128C1589.24 945.617 1590.96 945.281 1592.01 949.592Z" fill="#FF6584"/>
<path d="M409 196C440.48 196 466 169.137 466 136C466 102.863 440.48 76 409 76C377.52 76 352 102.863 352 136C352 169.137 377.52 196 409 196Z" fill="#F2F2F2"/>
<path d="M615.5 574L626.5 559L633 566L641.5 541.5L651 519.5L659 504L673 479L696 448L710.5 468.5L723 490L735.5 511.5L747.5 538.5L761 572L770 559.5L777.5 568L791.5 588.5L804.5 615L814.5 640L821 662L827 688L829 716V735L827 752.5L822.5 769.5L815 795.5L803 821.5L787.5 850L615.5 574Z" fill="black" stroke="black"/>
</svg>
