<svg width="856" height="564" viewBox="0 0 856 564" fill="none" xmlns="http://www.w3.org/2000/svg">
<g clip-path="url(#clip0_63_242)">
<path d="M558.665 246.266C557.678 251.458 556.495 256.596 555.115 261.682C554.966 262.272 554.799 262.854 554.631 263.445H535.442C533.807 263.447 532.24 264.097 531.085 265.254C529.929 266.41 529.279 267.979 529.277 269.614V324.367C528.696 325.451 528.106 326.526 527.516 327.601C524.469 333.154 521.298 338.645 518.057 344.066C465.212 432.166 391.508 505.89 303.451 558.729L308.665 546.954C306.753 546.822 304.834 546.689 302.923 546.557C261.312 543.71 219.56 540.555 178.926 531.195C136.417 521.402 94.8328 504.418 61.5175 476.257C28.1933 448.088 3.76415 407.861 0.373537 364.338C-0.75705 349.38 0.754455 334.34 4.83873 319.907C12.6498 292.125 29.7172 267.129 54.3403 252.339C93.0186 229.115 143.471 233.848 184.245 253.168C225.011 272.479 258.194 304.447 290.594 335.86C257.882 279.718 212.336 232.137 157.694 197.023C139.588 185.424 120.372 175.094 104.978 160.066C89.5927 145.047 78.241 123.991 80.9625 102.652C84.0534 78.449 103.86 60.0808 123.7 45.9168C131.626 40.2582 139.808 34.8906 148.244 29.9547C172.048 15.9935 197.799 5.46081 224.993 1.55624C261.831 -3.74094 301.619 4.29738 329.862 28.5533C361.68 55.8854 374.731 99.9638 373.489 142.13C393.093 113.608 423.326 91.7757 457.469 90.8502C492.915 89.8983 526.609 112.312 544.363 143.038C562.108 173.754 565.296 211.407 558.665 246.266Z" fill="#E6E6E6"/>
<path d="M334.399 364.722C355.16 362.892 374.338 360.754 394.456 355.056C413.957 349.534 432.722 340.288 446.604 325.193C461.535 308.956 469.595 287.87 475.282 266.879C478.452 255.176 481.058 243.309 483.516 231.438C486.183 218.558 488.553 205.621 490.625 192.627C494.751 166.763 497.696 140.746 499.461 114.577C499.674 111.4 499.87 108.222 500.047 105.044C500.158 103.083 497.11 103.089 497 105.044C495.55 130.839 492.942 156.534 489.176 182.128C485.459 207.274 480.703 232.311 474.669 257.007C469.557 277.928 462.939 299.176 449.829 316.591C437.536 332.923 419.78 343.595 400.608 349.976C381.099 356.469 360.529 359.062 340.143 360.989C337.642 361.226 336.901 361.451 334.399 361.672C332.461 361.843 332.443 364.894 334.399 364.722Z" fill="white"/>
<path d="M6.59743 322.157C32.7913 323.611 58.7188 328.184 83.8316 335.778C108.955 343.357 133.098 353.875 155.76 367.113C177.658 379.915 197.986 395.234 216.332 412.757C234.136 429.774 250.005 448.71 263.647 469.221C277.351 489.783 288.708 511.818 297.505 534.914C298.577 537.74 299.611 540.582 300.604 543.437C301.247 545.278 304.191 544.486 303.543 542.626C295.313 519.043 284.463 496.459 271.198 475.299C257.935 454.137 242.37 434.512 224.787 416.782C206.922 398.778 187.04 382.898 165.536 369.458C120.384 341.309 69.2041 324.28 16.1996 319.769C13.0023 319.501 9.80156 319.28 6.59746 319.107C4.63801 319 4.64399 322.05 6.59743 322.157Z" fill="white"/>
<path d="M149.068 33.5298C165.815 38.8607 181.69 46.6247 196.184 56.5732C210.994 66.8081 224.501 78.8133 236.405 92.3226C248.95 106.534 260.103 121.918 269.711 138.262C279.902 155.519 288.755 173.533 296.193 192.146C303.851 211.255 310.292 230.831 315.477 250.755C320.748 270.915 324.866 291.36 327.809 311.989C330.737 332.4 332.51 352.961 333.117 373.572C333.729 393.281 333.147 413.009 331.374 432.647C329.752 450.968 326.79 469.146 322.512 487.034C318.712 503.19 313.358 518.94 306.524 534.062C304.94 537.494 303.261 540.879 301.484 544.217C300.563 545.948 303.192 547.49 304.115 545.756C311.668 531.311 317.699 516.12 322.11 500.426C327.06 482.956 330.648 465.128 332.842 447.102C335.274 427.546 336.458 407.854 336.387 388.147C336.344 367.442 335.112 346.758 332.699 326.195C330.285 305.376 326.701 284.709 321.964 264.293C317.239 243.844 311.244 223.709 304.016 204.007C297.049 184.933 288.707 166.391 279.056 148.527C269.865 131.48 259.153 115.299 247.052 100.182C235.56 85.7875 222.44 72.7748 207.954 61.4037C193.986 50.472 178.551 41.5611 162.103 34.9332C158.083 33.332 154.008 31.884 149.878 30.5891C148.003 29.9987 147.2 32.9419 149.068 33.5298Z" fill="white"/>
<path d="M329.809 564C450.186 564 547.771 560.054 547.771 555.186C547.771 550.318 450.186 546.372 329.809 546.372C209.432 546.372 111.847 550.318 111.847 555.186C111.847 560.054 209.432 564 329.809 564Z" fill="#E6E6E6"/>
<path d="M522.381 279.124C522.273 279.6 522.202 280.083 522.17 280.57L484.339 302.413L475.144 297.115L465.341 309.958L485.013 323.991L528.172 289.914C529.932 290.566 531.849 290.666 533.667 290.201C535.486 289.736 537.12 288.728 538.352 287.311C539.584 285.894 540.356 284.135 540.565 282.268C540.774 280.401 540.41 278.515 539.522 276.86C538.634 275.205 537.263 273.86 535.593 273.004C533.922 272.148 532.031 271.821 530.17 272.066C528.309 272.312 526.567 273.119 525.176 274.38C523.784 275.641 522.81 277.295 522.381 279.124Z" fill="#FFB8B8"/>
<path d="M436.224 292.525L466.011 313.773L479.334 297.055L450.378 273.802C449.132 272.801 447.695 272.066 446.156 271.641C444.616 271.216 443.006 271.11 441.424 271.329C439.841 271.548 438.321 272.089 436.955 272.917C435.589 273.745 434.406 274.844 433.479 276.146C431.673 278.682 430.947 281.832 431.462 284.904C431.977 287.976 433.69 290.717 436.224 292.525Z" fill="black"/>
<path d="M374.735 534.968L385.18 537.706L400.706 498.692L385.292 494.649L374.735 534.968Z" fill="#FFB8B8"/>
<path d="M402.781 552.695L369.956 544.087L373.28 531.395L393.422 536.677C396.785 537.559 399.661 539.742 401.416 542.746C403.171 545.75 403.662 549.329 402.781 552.695Z" fill="#2F2E41"/>
<path d="M467.577 542.41L478.205 540.51L475.94 498.576L460.254 501.381L467.577 542.41Z" fill="#FFB8B8"/>
<path d="M500.466 546.724L467.062 552.695L464.757 539.779L485.255 536.114C486.949 535.811 488.687 535.845 490.369 536.214C492.051 536.584 493.643 537.281 495.056 538.266C496.468 539.251 497.673 540.505 498.601 541.956C499.529 543.407 500.163 545.027 500.466 546.724Z" fill="#2F2E41"/>
<path d="M446.648 234.017C449.267 234.655 451.398 237.326 452.677 240.421C453.858 243.671 454.657 247.047 455.059 250.481C456.064 256.877 457.03 263.802 454.95 269.725C452.513 276.668 446.019 280.305 440.385 278.596C434.752 276.887 430.271 270.472 428.741 263.089C427.347 255.628 428.245 247.919 431.316 240.979C432.916 237.333 435.122 233.969 438.053 232.324C439.491 231.454 441.205 231.161 442.85 231.504C444.495 231.847 445.949 232.8 446.92 234.173" fill="#2F2E41"/>
<path d="M461.467 349.821L481.701 531.207L464.989 537.558L434.166 415.926L391.254 527.138L372.961 528.156C372.961 528.156 398.06 355.11 416.66 351.177L461.467 349.821Z" fill="#2F2E41"/>
<path d="M444.471 257.166C456.417 257.166 466.101 247.473 466.101 235.518C466.101 223.562 456.417 213.87 444.471 213.87C432.525 213.87 422.841 223.562 422.841 235.518C422.841 247.473 432.525 257.166 444.471 257.166Z" fill="#FFB8B8"/>
<path d="M453.754 266.248L430.38 263.196C430.38 263.196 415.136 281.504 416.152 313.035C417.169 344.566 413.612 354.228 413.612 354.228L462.347 355.11C455.302 345.414 484.77 289.731 453.754 266.248Z" fill="black"/>
<path d="M466.31 359.517C465.823 359.52 465.337 359.562 464.856 359.642L434.953 327.783L438.002 317.612L423.266 311.001L414.12 333.378L457.141 367.628C456.91 369.492 457.251 371.383 458.12 373.048C458.988 374.713 460.343 376.075 462.003 376.951C463.663 377.827 465.551 378.176 467.414 377.953C469.278 377.729 471.029 376.943 472.435 375.699C473.842 374.455 474.836 372.812 475.287 370.988C475.737 369.165 475.623 367.247 474.958 365.491C474.293 363.734 473.109 362.221 471.565 361.154C470.02 360.087 468.187 359.516 466.31 359.517Z" fill="#FFB8B8"/>
<path d="M433.559 278.642L419.709 312.526L439.018 321.68L455.009 288.147C455.697 286.705 456.083 285.137 456.145 283.539C456.206 281.942 455.941 280.349 455.365 278.858C454.79 277.367 453.916 276.009 452.798 274.867C451.68 273.726 450.341 272.825 448.862 272.22C447.436 271.636 445.909 271.339 444.368 271.345C442.827 271.352 441.303 271.663 439.882 272.259C438.461 272.855 437.171 273.726 436.086 274.821C435.001 275.917 434.142 277.215 433.559 278.642Z" fill="black"/>
<path d="M438.813 255.199C442.202 253.242 442.564 248.522 442.103 244.633C441.642 240.744 440.873 236.409 443.157 233.229C445.883 229.435 451.359 229.359 456.027 229.235C460.695 229.111 466.38 227.743 467.59 223.229C468.389 220.246 466.679 217.045 464.225 215.173C461.771 213.301 458.702 212.473 455.718 211.686C449.043 209.926 442.151 208.151 435.316 209.119C428.547 210.077 422.426 213.664 418.279 219.104C414.132 224.544 412.292 231.399 413.157 238.187C414.263 246.87 415.867 250.661 414.814 254.49C412.853 261.62 404.395 266.201 404.227 273.595C404.095 279.379 409.199 283.841 414.18 286.777C418.13 289.107 422.393 291.083 426.946 291.629C431.498 292.174 436.399 291.13 439.791 288.042C444.165 284.059 445.247 277.404 443.992 271.621C442.738 265.837 439.521 260.7 436.338 255.712" fill="#2F2E41"/>
<path d="M848.074 261.682H535.442C533.341 261.685 531.326 262.522 529.841 264.009C528.355 265.496 527.519 267.512 527.516 269.615V470.572C527.519 472.675 528.355 474.691 529.841 476.178C531.326 477.665 533.341 478.502 535.442 478.505H848.074C850.175 478.502 852.189 477.665 853.675 476.178C855.161 474.691 855.997 472.675 856 470.572V269.615C855.997 267.512 855.161 265.496 853.675 264.009C852.189 262.522 850.175 261.685 848.074 261.682ZM854.239 470.572C854.237 472.208 853.587 473.776 852.431 474.933C851.275 476.09 849.708 476.74 848.074 476.742H535.442C533.807 476.74 532.24 476.09 531.085 474.933C529.929 473.776 529.279 472.208 529.277 470.572V269.615C529.279 267.979 529.929 266.411 531.085 265.254C532.24 264.097 533.807 263.447 535.442 263.445H848.074C849.708 263.447 851.275 264.097 852.431 265.254C853.587 266.411 854.237 267.979 854.239 269.615V470.572Z" fill="#3F3D56"/>
<path d="M602.174 361.716H552.857C550.872 361.714 548.97 360.924 547.566 359.519C546.163 358.115 545.374 356.211 545.371 354.224V304.866C545.374 302.88 546.163 300.976 547.566 299.571C548.97 298.167 550.872 297.377 552.857 297.375H602.174C604.158 297.377 606.061 298.167 607.464 299.571C608.867 300.976 609.657 302.88 609.659 304.866V354.224C609.657 356.211 608.867 358.115 607.464 359.519C606.061 360.924 604.158 361.714 602.174 361.716Z" fill="black"/>
<path d="M831.792 414.167H551.744C550.225 414.167 548.769 413.564 547.696 412.489C546.622 411.415 546.019 409.957 546.019 408.438C546.019 406.919 546.622 405.461 547.696 404.387C548.769 403.313 550.225 402.709 551.744 402.709H831.792C833.31 402.709 834.766 403.313 835.839 404.387C836.913 405.461 837.516 406.919 837.516 408.438C837.516 409.957 836.913 411.415 835.839 412.489C834.766 413.564 833.31 414.167 831.792 414.167Z" fill="#CCCCCC"/>
<path d="M831.98 386.403H551.932C550.413 386.403 548.957 385.8 547.884 384.725C546.81 383.651 546.207 382.194 546.207 380.674C546.207 379.155 546.81 377.698 547.884 376.623C548.957 375.549 550.413 374.945 551.932 374.945H831.98C833.498 374.945 834.954 375.549 836.027 376.623C837.101 377.698 837.704 379.155 837.704 380.674C837.704 382.194 837.101 383.651 836.027 384.725C834.954 385.8 833.498 386.403 831.98 386.403Z" fill="#CCCCCC"/>
<path d="M693.717 348.495H652.326C650.808 348.495 649.352 347.891 648.279 346.817C647.205 345.742 646.602 344.285 646.602 342.766C646.602 341.246 647.205 339.789 648.279 338.715C649.352 337.64 650.808 337.037 652.326 337.037H693.717C695.235 337.037 696.691 337.64 697.765 338.715C698.838 339.789 699.441 341.246 699.441 342.766C699.441 344.285 698.838 345.742 697.765 346.817C696.691 347.891 695.235 348.495 693.717 348.495Z" fill="#CCCCCC"/>
<path d="M831.98 320.299H652.326C650.808 320.299 649.352 319.695 648.279 318.621C647.205 317.547 646.602 316.089 646.602 314.57C646.602 313.05 647.205 311.593 648.279 310.519C649.352 309.444 650.808 308.841 652.326 308.841H831.98C833.498 308.841 834.954 309.444 836.027 310.519C837.101 311.593 837.704 313.05 837.704 314.57C837.704 316.089 837.101 317.547 836.027 318.621C834.954 319.695 833.498 320.299 831.98 320.299Z" fill="#CCCCCC"/>
<path d="M686.672 442.372H551.744C550.225 442.372 548.769 441.768 547.696 440.694C546.622 439.619 546.019 438.162 546.019 436.643C546.019 435.123 546.622 433.666 547.696 432.592C548.769 431.517 550.225 430.914 551.744 430.914H686.672C688.19 430.914 689.646 431.517 690.719 432.592C691.793 433.666 692.396 435.123 692.396 436.643C692.396 438.162 691.793 439.619 690.719 440.694C689.646 441.768 688.19 442.372 686.672 442.372Z" fill="#CCCCCC"/>
</g>
<defs>
<clipPath id="clip0_63_242">
<rect width="856" height="564" fill="white"/>
</clipPath>
</defs>
</svg>
