<svg width="582" height="442" viewBox="0 0 582 442" fill="none" xmlns="http://www.w3.org/2000/svg">
<g clip-path="url(#clip0_63_190)">
<path d="M232.895 42.6343C225.804 54.8603 239.156 75.4604 225.7 79.7381L226.808 78.6286C234.931 68.6286 217.954 47.4633 226.076 37.4633C227.338 35.9964 228.422 34.3847 229.304 32.6619" fill="#2F2E41"/>
<path d="M299.301 221.999C299.534 220.776 299.496 219.516 299.189 218.309C298.883 217.102 298.316 215.977 297.528 215.013C296.74 214.049 295.75 213.27 294.629 212.73C293.507 212.191 292.281 211.904 291.037 211.889L273.51 160.923L263.808 173.3L282.34 220.922C282.454 223.016 283.332 224.995 284.807 226.484C286.282 227.973 288.252 228.868 290.343 229.001C292.433 229.134 294.5 228.494 296.151 227.204C297.802 225.913 298.923 224.062 299.301 221.999Z" fill="#FFB8B8"/>
<path d="M222.256 98.9457C222.256 98.9457 221.71 80.4963 238.194 91.0652C254.678 101.634 290.568 200.639 290.568 200.639L272.707 210.31L232.162 119.709L222.256 98.9457Z" fill="black"/>
<path d="M270.887 415.154L262.656 418.675L245.172 388.574L257.321 383.378L270.887 415.154Z" fill="#FFB6B6"/>
<path d="M281.326 427.57L275.423 430.094L271.988 424.967L271.671 431.699L256.015 438.395C255.265 438.716 254.431 438.788 253.637 438.602C252.842 438.415 252.128 437.979 251.599 437.358C251.069 436.736 250.752 435.962 250.694 435.147C250.635 434.332 250.839 433.52 251.274 432.829L260.086 418.84L257.679 413.201L271.164 408.363L281.326 427.57Z" fill="#2F2E41"/>
<path d="M141.856 425.364L132.916 424.927L130.346 390.205L143.542 390.85L141.856 425.364Z" fill="#FFB6B6"/>
<path d="M145.818 441.099L139.406 440.785L138.558 434.671L135.331 440.586L118.326 439.754C117.511 439.714 116.73 439.415 116.097 438.899C115.464 438.384 115.012 437.679 114.808 436.888C114.603 436.098 114.657 435.262 114.96 434.504C115.263 433.746 115.801 433.104 116.495 432.674L130.532 423.951L130.832 417.826L145.073 419.378L145.818 441.099Z" fill="#2F2E41"/>
<path d="M405.278 419.832C405.87 419.854 406.454 419.692 406.952 419.37C407.45 419.048 407.836 418.581 408.06 418.032C408.283 417.482 408.333 416.878 408.201 416.299C408.069 415.721 407.763 415.197 407.325 414.799C407.249 414.509 407.195 414.302 407.119 414.012C407.672 412.567 408.643 411.319 409.909 410.43C411.175 409.54 412.677 409.049 414.224 409.02C415.77 408.991 417.29 409.424 418.589 410.265C419.887 411.106 420.905 412.316 421.512 413.739C425.014 421.731 429.526 429.995 427.405 438.854C441.673 407.827 436.356 369.451 414.584 343.241C408.604 340.018 403.727 334.237 402.408 327.483C405.361 328.453 409.009 326.022 406.766 322.939C405.795 321.762 404.815 320.594 403.845 319.417C414.914 307.39 428.417 325.998 416.261 342.204C420.335 347.218 423.875 352.645 426.823 358.397C426.096 352.267 426.834 346.052 428.976 340.263C431.151 334.866 435.281 330.299 438.912 325.617C443.326 319.912 452.546 322.437 453.216 329.617C449.105 331.013 448.627 336.979 453.351 337.75C452.243 351.129 443.634 363.496 431.673 369.473C436.229 381.894 438.088 395.144 437.126 408.34C439.101 392.909 455.593 389.012 467.086 382.777C467.817 382.298 468.671 382.043 469.545 382.041C470.418 382.04 471.273 382.293 472.006 382.77C472.738 383.247 473.316 383.926 473.668 384.726C474.021 385.526 474.134 386.411 473.993 387.274C472.404 387.938 470.886 388.758 469.46 389.723C468.792 390.182 468.281 390.836 468 391.597C467.718 392.357 467.678 393.186 467.885 393.97C468.092 394.755 468.537 395.455 469.158 395.977C469.779 396.498 470.545 396.814 471.353 396.882C465.667 411.362 450.705 421.191 435.242 421.284C433.818 427.761 431.725 434.072 428.997 440.115L406.048 440.334C405.963 440.08 405.887 439.817 405.81 439.562C407.936 439.676 410.067 439.528 412.157 439.123C406.473 432.517 402.095 429.16 405.278 419.832Z" fill="#F2F2F2"/>
<path d="M164.441 199.657C164.441 199.657 146.26 249.247 145.966 254.796C145.673 260.346 140.488 330.522 136.139 334.599C131.79 338.677 118.496 401.893 128.84 406.837C139.185 411.782 171.821 403.591 171.821 403.591L183.175 328.918L187.031 271.709C187.031 271.709 198.773 406.425 220.069 406.029C241.366 405.633 267.316 397.516 267.316 397.516L237.509 315.931C237.509 315.931 237.93 219.345 231.021 199.864C224.112 180.383 164.441 199.657 164.441 199.657Z" fill="#2F2E41"/>
<path d="M218.389 71.8926L194.041 74.1247L190.118 86.1761C190.118 86.1761 169.742 97.3762 174.254 102.464C178.766 107.553 173.245 141.843 173.245 141.843L174.492 169.677C174.492 169.677 173.152 188.962 169.144 193.405C165.135 197.848 154.648 208.743 162.058 203.53C188.04 185.254 233.454 200.675 233.454 200.675L226.966 160.904C226.966 160.904 241.702 95.7888 235.887 90.2896C230.071 84.7903 224.584 84.0953 224.584 84.0953L218.389 71.8926Z" fill="black"/>
<path d="M90.4494 198.047C91.6727 197.819 92.8312 197.326 93.8432 196.601C94.8552 195.877 95.6962 194.939 96.307 193.854C96.9177 192.769 97.2833 191.563 97.378 190.321C97.4727 189.079 97.2943 187.832 96.8552 186.667L137.922 151.796L122.875 147.25L85.2858 181.841C83.3788 182.709 81.8562 184.247 81.0065 186.164C80.1568 188.08 80.039 190.242 80.6755 192.24C81.312 194.237 82.6585 195.932 84.4599 197.002C86.2613 198.073 88.3924 198.445 90.4494 198.047Z" fill="#FFB8B8"/>
<path d="M194.743 106.835C194.743 106.835 202.834 90.249 183.464 93.0822C164.094 95.9154 90.6379 171.328 90.6379 171.328L102.931 187.505L177.169 121.67L194.743 106.835Z" fill="black"/>
<path d="M163.199 78.7015L86.3993 177.177C85.0707 178.886 84.4733 181.053 84.7379 183.202C85.0026 185.351 86.1077 187.308 87.8111 188.643C105.646 231.985 159.003 264.124 221.77 293.297C223.477 294.628 225.642 295.227 227.79 294.962C229.938 294.697 231.893 293.59 233.226 291.884L310.026 193.408C311.356 191.7 311.954 189.533 311.689 187.383C311.425 185.233 310.318 183.277 308.614 181.942C255.941 152.174 210.668 117.685 174.655 77.2885C172.947 75.9587 170.783 75.3608 168.635 75.6257C166.488 75.8906 164.533 76.9966 163.199 78.7015Z" fill="#E6E6E6"/>
<path d="M304.636 191.168L281.259 221.143C266.979 239.343 246.083 251.148 223.135 253.978C200.187 256.809 177.053 250.435 158.785 236.249L93.2724 185.068C92.3019 184.31 91.6716 183.197 91.5199 181.974C91.3681 180.751 91.7072 179.517 92.4628 178.544L166.674 83.3873C167.434 82.4174 168.547 81.7887 169.769 81.6392C170.992 81.4896 172.223 81.8313 173.194 82.5895C206.334 125.42 250.695 158.751 303.833 184.65C304.802 185.408 305.43 186.521 305.581 187.743C305.731 188.965 305.391 190.196 304.636 191.168Z" fill="white"/>
<path d="M161.667 132.46L146.442 151.981C146.038 152.498 145.446 152.833 144.795 152.913C144.144 152.993 143.488 152.812 142.971 152.408C142.454 152.004 142.118 151.411 142.038 150.76C141.957 150.108 142.138 149.451 142.541 148.934L157.766 129.412C157.966 129.155 158.214 128.941 158.497 128.78C158.78 128.62 159.091 128.516 159.414 128.476C159.737 128.437 160.064 128.461 160.377 128.547C160.691 128.634 160.984 128.782 161.24 128.982C161.496 129.182 161.711 129.431 161.871 129.714C162.031 129.997 162.134 130.309 162.174 130.632C162.213 130.955 162.189 131.283 162.102 131.597C162.015 131.91 161.867 132.203 161.667 132.46Z" fill="#CCCCCC"/>
<path d="M190.223 117.979L156.789 160.85C156.589 161.106 156.341 161.321 156.058 161.481C155.775 161.641 155.464 161.744 155.141 161.784C154.819 161.824 154.492 161.799 154.179 161.713C153.865 161.626 153.572 161.478 153.316 161.278C153.06 161.078 152.846 160.829 152.686 160.546C152.526 160.263 152.423 159.952 152.383 159.629C152.343 159.306 152.368 158.979 152.454 158.665C152.541 158.352 152.688 158.059 152.888 157.802L186.322 114.932C186.522 114.675 186.77 114.46 187.053 114.299C187.336 114.138 187.648 114.035 187.971 113.995C188.293 113.955 188.621 113.979 188.935 114.065C189.248 114.152 189.541 114.3 189.798 114.5C190.054 114.7 190.269 114.949 190.429 115.233C190.589 115.516 190.692 115.828 190.731 116.151C190.771 116.475 190.746 116.802 190.659 117.116C190.572 117.43 190.424 117.723 190.223 117.979Z" fill="#CCCCCC"/>
<path d="M133.201 189.487C142.201 189.487 149.497 182.184 149.497 173.176C149.497 164.167 142.201 156.865 133.201 156.865C124.2 156.865 116.904 164.167 116.904 173.176C116.904 182.184 124.2 189.487 133.201 189.487Z" fill="black"/>
<path d="M191.998 151.861L150.935 204.515C150.506 204.951 149.932 205.215 149.322 205.255C148.711 205.296 148.108 205.11 147.625 204.733C147.143 204.356 146.817 203.815 146.707 203.213C146.598 202.611 146.714 201.989 147.034 201.467L188.097 148.814C188.526 148.377 189.1 148.113 189.71 148.073C190.321 148.033 190.924 148.219 191.407 148.595C191.889 148.972 192.216 149.513 192.325 150.115C192.434 150.718 192.318 151.339 191.998 151.861Z" fill="#CCCCCC"/>
<path d="M218.637 139.84L161.322 213.331C160.894 213.768 160.32 214.031 159.709 214.072C159.099 214.112 158.495 213.926 158.013 213.549C157.531 213.173 157.204 212.632 157.095 212.029C156.986 211.427 157.102 210.806 157.421 210.283L214.736 136.792C215.165 136.355 215.739 136.092 216.349 136.051C216.96 136.011 217.563 136.197 218.046 136.574C218.528 136.95 218.854 137.491 218.964 138.094C219.073 138.696 218.957 139.317 218.637 139.84Z" fill="#CCCCCC"/>
<path d="M218.438 172.517L177.375 225.171C176.946 225.607 176.372 225.871 175.762 225.911C175.151 225.952 174.548 225.766 174.065 225.389C173.583 225.012 173.257 224.471 173.147 223.869C173.038 223.267 173.154 222.645 173.474 222.123L214.537 169.47C214.966 169.033 215.54 168.769 216.15 168.729C216.761 168.689 217.364 168.875 217.847 169.251C218.329 169.628 218.655 170.169 218.765 170.771C218.874 171.374 218.758 171.995 218.438 172.517Z" fill="#CCCCCC"/>
<path d="M272.772 179.01L231.709 231.664C231.28 232.101 230.706 232.364 230.096 232.405C229.486 232.445 228.882 232.259 228.4 231.882C227.918 231.506 227.591 230.965 227.482 230.362C227.372 229.76 227.489 229.138 227.808 228.616L268.872 175.963C269.3 175.526 269.874 175.262 270.485 175.222C271.095 175.182 271.699 175.368 272.181 175.744C272.663 176.121 272.99 176.662 273.099 177.265C273.208 177.867 273.092 178.488 272.772 179.01Z" fill="black"/>
<path d="M245.077 160.496L187.763 233.987C187.334 234.424 186.76 234.687 186.15 234.728C185.539 234.768 184.935 234.582 184.453 234.205C183.971 233.829 183.644 233.288 183.535 232.685C183.426 232.083 183.542 231.461 183.862 230.939L241.177 157.448C241.605 157.011 242.179 156.748 242.79 156.707C243.4 156.667 244.004 156.853 244.486 157.23C244.968 157.606 245.295 158.147 245.404 158.75C245.513 159.352 245.397 159.973 245.077 160.496Z" fill="#CCCCCC"/>
<path d="M177.568 40.7808C177.567 44.743 178.537 48.645 180.394 52.1443C182.251 55.6436 184.938 58.6331 188.219 60.8505C191.5 63.0678 195.274 64.4452 199.211 64.8617C203.148 65.2782 207.127 64.721 210.798 63.2392C214.47 61.7573 217.722 59.3961 220.269 56.3627C222.816 53.3293 224.58 49.7165 225.406 45.8415C226.232 41.9666 226.095 37.9478 225.007 34.1381C223.92 30.3284 221.914 26.8442 219.167 23.9914L219.051 23.8753C218.857 23.6719 218.664 23.4686 218.46 23.2749C218.459 23.2749 218.458 23.2747 218.457 23.2742C218.456 23.2737 218.454 23.273 218.454 23.2721C218.453 23.2712 218.452 23.2701 218.451 23.2689C218.451 23.2678 218.451 23.2665 218.451 23.2652C218.199 23.0328 217.948 22.8005 217.687 22.5778C214.192 19.5112 209.888 17.5178 205.291 16.836C200.693 16.1543 195.997 16.8132 191.764 18.7338C187.531 20.6545 183.941 23.7555 181.423 27.6656C178.905 31.5756 177.567 36.1291 177.568 40.7808Z" fill="#2F2E41"/>
<path d="M207.712 66.6791C218.912 66.6791 227.992 57.5915 227.992 46.3813C227.992 35.1711 218.912 26.0835 207.712 26.0835C196.511 26.0835 187.432 35.1711 187.432 46.3813C187.432 57.5915 196.511 66.6791 207.712 66.6791Z" fill="#FFB8B8"/>
<path d="M186.092 51.7906C184.11 42.8496 186.975 32.8327 193.222 26.8637C196.364 23.9209 200.272 21.925 204.496 21.1055C208.721 20.2859 213.09 20.676 217.103 22.2308C217.613 22.4368 218.123 22.6623 218.624 22.8977L218.857 23.0075V23.0416C218.902 23.0729 218.947 23.1058 218.992 23.1391C219.087 23.2278 219.202 23.2914 219.327 23.3242C221.088 23.2781 222.839 23.6049 224.465 24.2832C226.09 24.9616 227.555 25.9761 228.762 27.2604C231.905 30.6739 233.385 36.1903 232.931 42.7933L232.917 42.9998L232.741 43.1096C230.361 44.6189 227.892 45.9816 225.347 47.1901C216.444 51.38 208.316 52.1564 200.504 49.5605L200.361 49.5129L197.082 44.0132C196.409 47.8064 196.768 60.3882 192.906 61.0698L186.176 52.1698L186.092 51.7906Z" fill="#2F2E41"/>
<path d="M143.401 69.4637C150.302 65.8985 141.426 52.9591 143.21 45.3938C144.993 37.8284 157.837 35.3952 158.655 27.6653C159.473 19.9354 161.398 11.9629 166.495 6.09746C169.751 2.34943 174.55 -0.417495 179.49 0.0519695C181.162 0.210806 182.78 0.728358 184.233 1.56937C185.687 2.41039 186.943 3.55512 187.914 4.92558C188.886 6.29605 189.552 7.86004 189.865 9.51106C190.179 11.1621 190.133 12.8613 189.731 14.4931C191.138 12.4982 194.778 12.9306 195.679 15.1997C196.48 17.2169 194.711 19.6603 192.628 19.8388C189.903 23.2072 186.782 26.7819 182.513 27.4614C181.832 27.6178 181.126 27.6174 180.445 27.4603C179.765 27.3032 179.13 26.9934 178.587 26.5545C177.583 25.5891 177.504 23.659 178.696 22.9376C173.33 25.0707 170.185 30.8769 169.389 36.5999C168.593 42.3229 169.694 48.1135 170.42 53.8459C171.146 59.5783 171.458 65.6085 169.213 70.9317C166.559 77.2211 160.451 81.7289 153.784 83.1745C147.117 84.6201 140.018 83.2073 133.983 80.0241C127.949 76.8407 122.917 71.981 118.806 66.5328C125.887 71.5652 135.684 73.4505 143.401 69.4637Z" fill="#2F2E41"/>
<path d="M198.024 45.0691C190.933 57.2951 204.285 77.8952 190.829 82.173L191.937 81.0634C200.06 71.0635 183.083 49.8981 191.205 39.8981C192.467 38.4313 193.551 36.8195 194.433 35.0967" fill="#2F2E41"/>
<path d="M187.039 51.6056C187.039 51.6056 193.047 29.1618 218.799 23.9816C218.828 23.9721 218.925 23.9333 219.051 23.8753C219.128 23.8268 219.225 23.7783 219.322 23.73C219.031 23.5653 218.751 23.4202 218.461 23.2748L218.457 23.2741L218.454 23.272L218.452 23.2688L218.451 23.2651C218.199 23.0327 217.948 22.8004 217.687 22.5777L216.951 22.6068C216.951 22.6068 191.112 18.5112 187.039 51.6056Z" fill="#FD6584"/>
<path d="M4.29526e-06 441.034C-0.000374744 441.161 0.0243363 441.287 0.0727029 441.404C0.121069 441.521 0.192147 441.628 0.28184 441.718C0.371533 441.808 0.478068 441.879 0.595329 441.927C0.712589 441.976 0.838254 442 0.965095 442H581.035C581.291 442 581.536 441.898 581.717 441.717C581.898 441.536 582 441.29 582 441.034C582 440.778 581.898 440.532 581.717 440.351C581.536 440.17 581.291 440.068 581.035 440.068H0.965046C0.83821 440.068 0.712557 440.092 0.595304 440.141C0.478051 440.189 0.371514 440.26 0.281827 440.35C0.192141 440.44 0.121068 440.547 0.0727029 440.664C0.0243375 440.781 -0.000369331 440.907 4.29526e-06 441.034Z" fill="#CCCCCC"/>
</g>
<defs>
<clipPath id="clip0_63_190">
<rect width="582" height="442" fill="white"/>
</clipPath>
</defs>
</svg>
