<svg width="522" height="449" viewBox="0 0 522 449" fill="none" xmlns="http://www.w3.org/2000/svg">
<g clip-path="url(#clip0_63_158)" filter="url(#filter0_d_63_158)">
<path d="M42.5969 404.701C45.5587 405.742 48.7387 406.003 51.8305 405.459C54.9224 404.914 57.8219 403.583 60.2497 401.592C66.4325 396.403 68.3714 387.857 69.9483 379.942L74.6137 356.53L64.8464 363.254C57.8218 368.09 50.6395 373.081 45.7762 380.085C40.9129 387.09 38.7912 396.652 42.6976 404.231" fill="#E6E6E6"/>
<path d="M44.1051 434.676C42.8758 425.721 41.6109 416.65 42.4753 407.599C43.2413 399.561 45.6942 391.711 50.6879 385.272C53.3385 381.861 56.5638 378.938 60.2189 376.636C61.1717 376.035 62.049 377.544 61.1002 378.143C54.7758 382.139 49.884 388.04 47.1302 394.996C44.0888 402.73 43.6005 411.161 44.1243 419.377C44.441 424.345 45.1139 429.281 45.7897 434.211C45.843 434.434 45.8097 434.669 45.6965 434.869C45.5832 435.068 45.3985 435.217 45.1797 435.285C44.9564 435.345 44.7184 435.315 44.5174 435.201C44.3163 435.087 44.1684 434.898 44.1057 434.675L44.1051 434.676Z" fill="#F2F2F2"/>
<path d="M52.9539 420.307C54.2239 422.238 55.9699 423.809 58.0236 424.869C60.0773 425.929 62.3695 426.443 64.6793 426.36C70.6165 426.078 75.5642 421.937 80.0178 418.004L93.1932 406.372L84.4736 405.955C78.2028 405.655 71.7702 405.373 65.7975 407.309C59.8248 409.245 54.3165 413.896 53.2245 420.077" fill="#E6E6E6"/>
<path d="M40.63 439.824C46.5486 429.354 53.4131 417.717 65.6799 413.997C69.0903 412.967 72.6664 412.597 76.2155 412.909C77.3343 413.006 77.0549 414.73 75.9385 414.634C69.9891 414.14 64.0513 415.711 59.1245 419.082C54.3834 422.308 50.6919 426.794 47.5678 431.551C45.6539 434.465 43.9397 437.502 42.2255 440.536C41.6777 441.505 40.0758 440.805 40.63 439.824Z" fill="#F2F2F2"/>
<path d="M514.207 310.565H187.906C186.901 310.563 185.937 310.163 185.226 309.452C184.515 308.742 184.115 307.778 184.114 306.773V3.79199C184.115 2.7867 184.515 1.82295 185.226 1.1121C185.937 0.401249 186.901 0.00131417 187.906 0H514.207C515.213 0.00131417 516.177 0.401249 516.888 1.1121C517.599 1.82295 517.999 2.7867 518 3.79199V306.772C517.999 307.777 517.599 308.741 516.888 309.452C516.177 310.163 515.213 310.563 514.207 310.565Z" fill="white"/>
<path d="M514.207 310.565H187.906C186.901 310.563 185.937 310.163 185.226 309.452C184.515 308.742 184.115 307.778 184.114 306.773V3.79199C184.115 2.7867 184.515 1.82295 185.226 1.1121C185.937 0.401249 186.901 0.00131417 187.906 0H514.207C515.213 0.00131417 516.177 0.401249 516.888 1.1121C517.599 1.82295 517.999 2.7867 518 3.79199V306.772C517.999 307.777 517.599 308.741 516.888 309.452C516.177 310.163 515.213 310.563 514.207 310.565ZM187.906 1.51381C187.304 1.51512 186.726 1.75504 186.3 2.18106C185.874 2.60709 185.634 3.18453 185.633 3.78702V306.772C185.634 307.374 185.874 307.952 186.3 308.378C186.726 308.804 187.304 309.044 187.906 309.045H514.207C514.81 309.044 515.388 308.804 515.814 308.378C516.24 307.952 516.48 307.374 516.481 306.772V3.79199C516.48 3.1895 516.24 2.61206 515.814 2.18604C515.388 1.76002 514.81 1.52009 514.207 1.51878L187.906 1.51381Z" fill="#CACACA"/>
<path d="M342.09 78.7305C341.407 78.7316 340.754 79.0034 340.272 79.486C339.79 79.9687 339.519 80.6228 339.519 81.3049C339.519 81.9869 339.79 82.641 340.272 83.1237C340.754 83.6063 341.407 83.8781 342.09 83.8792H483.373C484.055 83.8781 484.709 83.6063 485.191 83.1237C485.673 82.641 485.944 81.9869 485.944 81.3049C485.944 80.6228 485.673 79.9687 485.191 79.486C484.709 79.0034 484.055 78.7316 483.373 78.7305H342.09Z" fill="#E4E4E4"/>
<path d="M342.09 94.1782C341.408 94.1799 340.754 94.4518 340.273 94.9344C339.791 95.4171 339.521 96.0709 339.521 96.7526C339.521 97.4343 339.791 98.0882 340.273 98.5708C340.754 99.0534 341.408 99.3254 342.09 99.327H414.218C414.9 99.3254 415.553 99.0534 416.034 98.5708C416.516 98.0882 416.786 97.4343 416.786 96.7526C416.786 96.0709 416.516 95.4171 416.034 94.9344C415.553 94.4518 414.9 94.1799 414.218 94.1782H342.09Z" fill="#E4E4E4"/>
<path d="M218.603 177.251C217.921 177.253 217.268 177.525 216.786 178.007C216.305 178.49 216.035 179.144 216.035 179.826C216.035 180.507 216.305 181.161 216.786 181.644C217.268 182.126 217.921 182.398 218.603 182.4H483.511C484.193 182.398 484.846 182.126 485.327 181.644C485.809 181.161 486.079 180.507 486.079 179.826C486.079 179.144 485.809 178.49 485.327 178.007C484.846 177.525 484.193 177.253 483.511 177.251H218.603Z" fill="#E4E4E4"/>
<path d="M218.603 192.699C217.921 192.701 217.268 192.973 216.786 193.455C216.305 193.938 216.035 194.592 216.035 195.274C216.035 195.955 216.305 196.609 216.786 197.092C217.268 197.574 217.921 197.846 218.603 197.848H414.355C415.037 197.846 415.69 197.574 416.172 197.092C416.653 196.609 416.924 195.955 416.924 195.274C416.924 194.592 416.653 193.938 416.172 193.455C415.69 192.973 415.037 192.701 414.355 192.699H218.603Z" fill="#E4E4E4"/>
<path d="M218.603 207.797C217.921 207.799 217.268 208.071 216.786 208.554C216.305 209.036 216.035 209.69 216.035 210.372C216.035 211.053 216.305 211.707 216.786 212.19C217.268 212.673 217.921 212.944 218.603 212.946H483.511C484.193 212.944 484.846 212.673 485.327 212.19C485.809 211.707 486.079 211.053 486.079 210.372C486.079 209.69 485.809 209.036 485.327 208.554C484.846 208.071 484.193 207.799 483.511 207.797H218.603Z" fill="#E4E4E4"/>
<path d="M218.603 223.245C217.921 223.247 217.268 223.519 216.786 224.001C216.305 224.484 216.035 225.138 216.035 225.82C216.035 226.501 216.305 227.155 216.786 227.638C217.268 228.12 217.921 228.392 218.603 228.394H414.355C415.037 228.392 415.69 228.12 416.172 227.638C416.653 227.155 416.924 226.501 416.924 225.82C416.924 225.138 416.653 224.484 416.172 224.001C415.69 223.519 415.037 223.247 414.355 223.245H218.603Z" fill="#E4E4E4"/>
<path d="M218.603 238.746C217.921 238.748 217.268 239.019 216.786 239.502C216.305 239.985 216.035 240.639 216.035 241.32C216.035 242.002 216.305 242.656 216.786 243.138C217.268 243.621 217.921 243.893 218.603 243.895H483.511C484.193 243.893 484.846 243.621 485.327 243.138C485.809 242.656 486.079 242.002 486.079 241.32C486.079 240.639 485.809 239.985 485.327 239.502C484.846 239.019 484.193 238.748 483.511 238.746H218.603Z" fill="#E4E4E4"/>
<path d="M218.603 254.194C217.921 254.195 217.268 254.467 216.786 254.95C216.305 255.432 216.035 256.086 216.035 256.768C216.035 257.45 216.305 258.104 216.786 258.586C217.268 259.069 217.921 259.341 218.603 259.342H414.355C415.037 259.341 415.69 259.069 416.172 258.586C416.653 258.104 416.924 257.45 416.924 256.768C416.924 256.086 416.653 255.432 416.172 254.95C415.69 254.467 415.037 254.195 414.355 254.194H218.603Z" fill="#E4E4E4"/>
<path d="M260.562 126.016C253.245 126.016 246.093 123.846 240.01 119.782C233.926 115.718 229.185 109.942 226.385 103.183C223.585 96.4246 222.852 88.9877 224.28 81.8129C225.707 74.6381 229.23 68.0476 234.404 62.8749C239.577 57.7021 246.168 54.1794 253.344 52.7522C260.52 51.3251 267.958 52.0575 274.718 54.857C281.477 57.6564 287.255 62.3971 291.32 68.4796C295.384 74.5621 297.554 81.7132 297.554 89.0285C297.543 98.8346 293.642 108.236 286.707 115.17C279.772 122.104 270.369 126.004 260.562 126.016Z" fill="black"/>
<path d="M148.269 265.866C148.205 264.516 147.846 263.196 147.217 262C146.588 260.804 145.704 259.76 144.628 258.943C143.551 258.125 142.309 257.553 140.988 257.267C139.666 256.982 138.299 256.989 136.981 257.289L124.753 240.06L112.469 244.936L130.078 269.025C130.729 271.205 132.158 273.071 134.093 274.269C136.027 275.467 138.335 275.913 140.577 275.524C142.819 275.135 144.841 273.936 146.259 272.156C147.676 270.376 148.392 268.138 148.269 265.866Z" fill="#A0616A"/>
<path d="M124.438 264.589L87.4399 216.598L101.303 173.036C102.319 162.084 109.173 159.026 109.465 158.901L109.91 158.71L121.973 190.875L113.116 214.491L134.856 251.049L124.438 264.589Z" fill="#3F3D56"/>
<path d="M252.928 116.649C251.587 116.818 250.299 117.278 249.155 117.998C248.01 118.717 247.038 119.679 246.306 120.815C245.574 121.951 245.1 123.234 244.917 124.573C244.734 125.912 244.847 127.275 245.249 128.566L229.014 142.087L234.825 153.956L257.484 134.539C259.608 133.722 261.358 132.154 262.403 130.132C263.448 128.111 263.715 125.776 263.153 123.571C262.592 121.366 261.241 119.443 259.356 118.168C257.471 116.892 255.184 116.352 252.928 116.649Z" fill="#A0616A"/>
<path d="M253.497 140.504L208.503 181.097L163.993 170.646C152.993 170.48 149.414 163.883 149.267 163.602L149.042 163.173L180.183 148.661L204.417 155.665L239.19 131.166L253.497 140.504Z" fill="#3F3D56"/>
<path d="M175.561 429.077L187.65 429.077L193.401 382.455L175.559 382.456L175.561 429.077Z" fill="#A0616A"/>
<path d="M210.965 440.299L172.971 440.301L172.97 425.624L200.305 425.623C203.132 425.622 205.843 426.745 207.842 428.744C209.841 430.742 210.964 433.453 210.965 436.28L210.965 440.299Z" fill="#2F2E41"/>
<path d="M127.244 429.077L139.333 429.077L145.084 382.455L127.242 382.456L127.244 429.077Z" fill="#A0616A"/>
<path d="M162.648 440.299L124.654 440.301L124.653 425.624L151.988 425.623C153.387 425.622 154.774 425.898 156.067 426.434C157.36 426.969 158.535 427.754 159.525 428.744C160.515 429.733 161.3 430.908 161.836 432.201C162.372 433.494 162.647 434.88 162.647 436.28L162.648 440.299Z" fill="#2F2E41"/>
<path d="M122.944 258.902L123.93 327.916L124.917 418.621L146.61 416.649L157.457 291.438L171.262 416.649H193.657L195.913 290.452L188.025 262.846L122.944 258.902Z" fill="#2F2E41"/>
<path d="M165.404 268.17C141.8 268.172 120.073 257.491 119.78 257.344L119.536 257.222L117.555 209.693C116.981 208.013 105.67 174.871 103.755 164.337C101.814 153.665 129.943 144.298 133.358 143.203L134.134 134.618L165.656 131.221L169.651 142.207L180.96 146.447C182.242 146.928 183.303 147.862 183.942 149.073C184.581 150.284 184.753 151.688 184.426 153.017L178.141 178.573L193.492 263.124L190.187 263.267C182.265 266.844 173.716 268.17 165.404 268.17Z" fill="#3F3D56"/>
<path d="M162.015 123.003C173.013 116.991 177.055 103.203 171.043 92.2066C165.031 81.2098 151.241 77.1683 140.242 83.1797C129.244 89.1912 125.202 102.979 131.214 113.976C137.226 124.973 151.016 129.014 162.015 123.003Z" fill="#A0616A"/>
<path d="M132.746 125.059C137.072 129.666 145.104 127.193 145.668 120.9C145.712 120.411 145.709 119.919 145.658 119.431C145.367 116.644 143.757 114.113 144.142 111.169C144.23 110.437 144.503 109.739 144.935 109.141C148.382 104.526 156.473 111.205 159.726 107.028C161.72 104.466 159.376 100.433 160.907 97.5699C162.927 93.7911 168.91 95.6552 172.663 93.5857C176.838 91.2833 176.588 84.8786 173.84 80.9829C170.488 76.232 164.612 73.6969 158.808 73.3316C153.005 72.9662 147.242 74.5347 141.824 76.6458C135.668 79.0444 129.564 82.3594 125.776 87.7714C121.169 94.3529 120.725 103.201 123.029 110.897C124.431 115.579 129.214 121.298 132.746 125.059Z" fill="#2F2E41"/>
<path d="M292.391 440.884H4.75495C4.55473 440.884 4.36269 440.805 4.22111 440.663C4.07953 440.522 4 440.33 4 440.129C4 439.929 4.07953 439.737 4.22111 439.596C4.36269 439.454 4.55473 439.375 4.75495 439.375H292.391C292.592 439.375 292.784 439.454 292.925 439.596C293.067 439.737 293.146 439.929 293.146 440.129C293.146 440.33 293.067 440.522 292.925 440.663C292.784 440.805 292.592 440.884 292.391 440.884Z" fill="#CACACA"/>
<path d="M258.426 102.999C257.758 102.999 257.116 102.747 256.628 102.292L244.43 90.9643C243.917 90.4873 243.615 89.8262 243.589 89.1265C243.564 88.4268 243.817 87.7455 244.294 87.2325C244.77 86.7194 245.431 86.4165 246.131 86.3903C246.831 86.3641 247.513 86.6168 248.026 87.0928L258.358 96.6882L278.8 76.2501C279.045 76.0033 279.336 75.8072 279.657 75.6732C279.978 75.5392 280.322 75.4699 280.67 75.4692C281.018 75.4686 281.363 75.5366 281.684 75.6694C282.006 75.8023 282.298 75.9973 282.544 76.2432C282.79 76.4892 282.985 76.7813 283.117 77.1028C283.25 77.4242 283.318 77.7688 283.317 78.1166C283.317 78.4644 283.247 78.8086 283.113 79.1295C282.979 79.4505 282.783 79.7418 282.536 79.9867L260.294 102.225C260.049 102.471 259.758 102.665 259.437 102.798C259.116 102.931 258.773 102.999 258.426 102.999Z" fill="white"/>
</g>
<defs>
<filter id="filter0_d_63_158" x="0" y="0" width="522" height="449" filterUnits="userSpaceOnUse" color-interpolation-filters="sRGB">
<feFlood flood-opacity="0" result="BackgroundImageFix"/>
<feColorMatrix in="SourceAlpha" type="matrix" values="0 0 0 0 0 0 0 0 0 0 0 0 0 0 0 0 0 0 127 0" result="hardAlpha"/>
<feOffset dy="4"/>
<feGaussianBlur stdDeviation="2"/>
<feComposite in2="hardAlpha" operator="out"/>
<feColorMatrix type="matrix" values="0 0 0 0 0 0 0 0 0 0 0 0 0 0 0 0 0 0 0.25 0"/>
<feBlend mode="normal" in2="BackgroundImageFix" result="effect1_dropShadow_63_158"/>
<feBlend mode="normal" in="SourceGraphic" in2="effect1_dropShadow_63_158" result="shape"/>
</filter>
<clipPath id="clip0_63_158">
<rect width="514" height="441" fill="white" transform="translate(4)"/>
</clipPath>
</defs>
</svg>
