<svg width="32" height="32" viewBox="0 0 32 32" fill="none" xmlns="http://www.w3.org/2000/svg">
<g clip-path="url(#clip0_2_383)" filter="url(#filter0_d_2_383)">
<path d="M24.4001 0.00012207H7.60012C5.6119 0.00012207 4.00012 1.6119 4.00012 3.60012V20.4001C4.00012 22.3883 5.6119 24.0001 7.60012 24.0001H24.4001C26.3883 24.0001 28.0001 22.3883 28.0001 20.4001V3.60012C28.0001 1.6119 26.3883 0.00012207 24.4001 0.00012207Z" fill="#3178C6"/>
<path d="M14.9221 13.3127H17.9221V11.3909H9.53149V13.3127H12.5315V21.8909H14.9221V13.3127ZM18.8596 21.4221C19.2393 21.619 19.7034 21.7643 20.219 21.8627C20.7346 21.9612 21.2971 22.0081 21.8596 22.0081C22.4221 22.0081 22.9377 21.9565 23.4534 21.8487C23.969 21.7409 24.3909 21.5627 24.7659 21.3331C25.1456 21.0846 25.469 20.7706 25.6565 20.3487C25.844 19.9268 25.9893 19.4581 25.9893 18.8487C25.9893 18.4221 25.9237 18.0518 25.7971 17.7237C25.6706 17.3956 25.4877 17.1143 25.2346 16.8799C24.9956 16.6315 24.719 16.4112 24.3909 16.2237C24.0627 16.0362 23.6877 15.8393 23.2659 15.6612C22.9565 15.5346 22.7034 15.4127 22.4221 15.2909C22.1784 15.169 21.9674 15.0471 21.8127 14.9252C21.6393 14.7987 21.5081 14.6674 21.4143 14.5315C21.3206 14.3909 21.2737 14.2362 21.2737 14.0627C21.2737 13.9034 21.3154 13.7581 21.4002 13.6268C21.4851 13.4956 21.6018 13.3877 21.7518 13.294C21.9018 13.2002 22.0893 13.1299 22.3143 13.0784C22.5346 13.0268 22.7784 13.0034 23.0643 13.0034C23.2612 13.0034 23.4674 13.0179 23.6737 13.0474C23.8893 13.077 24.1096 13.1224 24.3299 13.1834C24.5502 13.2443 24.7659 13.3193 24.9862 13.4131C25.1924 13.5068 25.3846 13.6146 25.5487 13.7365V11.5334C25.1924 11.3974 24.7987 11.2943 24.3768 11.2287C23.9549 11.1631 23.4862 11.1302 22.9237 11.1302C22.3612 11.1302 21.8456 11.1912 21.3299 11.3084C20.8143 11.4256 20.3924 11.6131 20.0174 11.8709C19.6377 12.124 19.3612 12.4334 19.1268 12.8552C18.9065 13.249 18.7987 13.699 18.7987 14.2615C18.7987 14.9646 19.0002 15.574 19.4081 16.0427C19.8112 16.5584 20.4393 16.9334 21.2362 17.3084C21.5596 17.4396 21.8456 17.5709 22.1268 17.6974C22.4081 17.824 22.6424 17.9552 22.8299 18.0912C23.0315 18.2271 23.1909 18.3771 23.2987 18.5365C23.4159 18.6959 23.4768 18.8834 23.4768 19.099C23.4768 19.249 23.4402 19.3896 23.369 19.5209C23.2977 19.6521 23.1862 19.7646 23.0362 19.8584C22.8862 19.9521 22.7034 20.0271 22.4737 20.0834C22.2534 20.1349 22.0049 20.1631 21.6768 20.1631C21.1612 20.1631 20.6456 20.074 20.1768 19.8959C19.6612 19.7177 19.1924 19.4506 18.8596 19.1721V21.4221Z" fill="white"/>
</g>
<defs>
<filter id="filter0_d_2_383" x="0.00012207" y="0.00012207" width="32" height="32" filterUnits="userSpaceOnUse" color-interpolation-filters="sRGB">
<feFlood flood-opacity="0" result="BackgroundImageFix"/>
<feColorMatrix in="SourceAlpha" type="matrix" values="0 0 0 0 0 0 0 0 0 0 0 0 0 0 0 0 0 0 127 0" result="hardAlpha"/>
<feOffset dy="4"/>
<feGaussianBlur stdDeviation="2"/>
<feComposite in2="hardAlpha" operator="out"/>
<feColorMatrix type="matrix" values="0 0 0 0 0 0 0 0 0 0 0 0 0 0 0 0 0 0 0.25 0"/>
<feBlend mode="normal" in2="BackgroundImageFix" result="effect1_dropShadow_2_383"/>
<feBlend mode="normal" in="SourceGraphic" in2="effect1_dropShadow_2_383" result="shape"/>
</filter>
<clipPath id="clip0_2_383">
<rect width="24" height="24" fill="white" transform="translate(4.00012 0.00012207)"/>
</clipPath>
</defs>
</svg>
